# CAD Exchanger 3.19.0 (cadexchanger.com)
# Object Count: 1
mtllib Pipe Rack.mtl
g Pipe Rack
v 113654.609680 4775.199890 -269914.672852
v 113654.609680 4775.199890 -263818.664551
v 113654.609680 4876.800060 -269914.672852
v 113654.609680 4876.800060 -263818.664551
v 116093.009949 4775.199890 -269914.672852
v 116093.009949 4876.800060 -269914.672852
v 116093.009949 4775.199890 -263818.664551
v 116093.009949 4876.800060 -263818.664551
v 113692.710876 4775.199890 -265837.982178
v 113692.710876 4775.199890 -263856.781006
v 113692.710876 4775.199890 -265876.068115
v 116054.916382 4775.199890 -265876.068115
v 116054.916382 4775.199890 -265837.982178
v 116054.916382 4775.199890 -263856.781006
v 116054.916382 4775.199890 -267857.269287
v 113692.710876 4775.199890 -267857.269287
v 113692.710876 4775.199890 -267895.385742
v 116054.916382 4775.199890 -267895.385742
v 116054.916382 4775.199890 -269876.586914
v 113692.710876 4775.199890 -269876.586914
v 113692.710876 4876.800060 -265837.982178
v 116054.916382 4876.800060 -265876.068115
v 113692.710876 4876.800060 -265876.068115
v 113692.710876 4876.800060 -263856.781006
v 116054.916382 4876.800060 -263856.781006
v 116054.916382 4876.800060 -265837.982178
v 113692.710876 4876.800060 -267857.269287
v 116054.916382 4876.800060 -267857.269287
v 116054.916382 4876.800060 -267895.385742
v 113692.710876 4876.800060 -267895.385742
v 113692.710876 4876.800060 -269876.586914
v 116054.916382 4876.800060 -269876.586914
v 116093.009949 4775.199890 -266815.887451
v 116093.009949 4775.199890 -266917.480469
v 116054.916382 4775.199890 -266815.887451
v 116054.916382 4775.199890 -266917.480469
v 116093.009949 0.000000 -266815.887451
v 116054.916382 0.000000 -266815.887451
v 116093.009949 0.000000 -266917.480469
v 116054.916382 0.000000 -266917.480469
v 113692.710876 4775.199890 -264428.283691
v 113692.710876 4775.199890 -264529.876709
v 113654.609680 4775.199890 -264428.283691
v 113654.609680 4775.199890 -264529.876709
v 113692.710876 0.000000 -264428.283691
v 113654.609680 0.000000 -264428.283691
v 113692.710876 0.000000 -264529.876709
v 113654.609680 0.000000 -264529.876709
v 116093.009949 4775.199890 -264428.283691
v 116093.009949 4775.199890 -264529.876709
v 116054.916382 4775.199890 -264428.283691
v 116054.916382 4775.199890 -264529.876709
v 116093.009949 0.000000 -264428.283691
v 116054.916382 0.000000 -264428.283691
v 116093.009949 0.000000 -264529.876709
v 116054.916382 0.000000 -264529.876709
v 113692.710876 4775.199890 -269203.460693
v 113692.710876 4775.199890 -269305.084229
v 113654.609680 4775.199890 -269203.460693
v 113654.609680 4775.199890 -269305.084229
v 113692.710876 0.000000 -269203.460693
v 113654.609680 0.000000 -269203.460693
v 113692.710876 0.000000 -269305.084229
v 113654.609680 0.000000 -269305.084229
v 116093.009949 4775.199890 -269203.460693
v 116093.009949 4775.199890 -269305.084229
v 116054.916382 4775.199890 -269203.460693
v 116054.916382 4775.199890 -269305.084229
v 116093.009949 0.000000 -269203.460693
v 116054.916382 0.000000 -269203.460693
v 116093.009949 0.000000 -269305.084229
v 116054.916382 0.000000 -269305.084229
v 113692.710876 4775.199890 -266815.887451
v 113692.710876 4775.199890 -266917.480469
v 113654.609680 4775.199890 -266815.887451
v 113654.609680 4775.199890 -266917.480469
v 113692.710876 0.000000 -266815.887451
v 113654.609680 0.000000 -266815.887451
v 113692.710876 0.000000 -266917.480469
v 113654.609680 0.000000 -266917.480469
vn -1.000000 0.000000 0.000000
vn 0.000000 0.000000 -1.000000
vn 1.000000 0.000000 -0.000000
vn 0.000000 0.000000 1.000000
vn 0.000000 -1.000000 0.000000
vn 0.000000 1.000000 0.000000
usemtl Material_1
f 1//1 2//1 3//1
f 3//1 2//1 4//1
f 5//2 1//2 6//2
f 6//2 1//2 3//2
f 7//3 5//3 8//3
f 8//3 5//3 6//3
f 2//4 7//4 4//4
f 4//4 7//4 8//4
f 1//5 9//5 2//5
f 2//5 9//5 10//5
f 2//5 10//5 7//5
f 11//5 12//5 13//5
f 10//5 14//5 7//5
f 7//5 14//5 13//5
f 7//5 13//5 5//5
f 5//5 13//5 12//5
f 5//5 12//5 15//5
f 13//5 9//5 11//5
f 11//5 9//5 1//5
f 11//5 1//5 16//5
f 16//5 1//5 17//5
f 16//5 17//5 15//5
f 15//5 17//5 18//5
f 15//5 18//5 5//5
f 5//5 18//5 19//5
f 5//5 19//5 1//5
f 1//5 19//5 20//5
f 1//5 20//5 17//5
f 21//6 22//6 23//6
f 24//6 4//6 25//6
f 25//6 4//6 8//6
f 25//6 8//6 26//6
f 26//6 8//6 6//6
f 27//6 3//6 23//6
f 23//6 3//6 4//6
f 23//6 4//6 21//6
f 21//6 4//6 24//6
f 21//6 26//6 22//6
f 22//6 26//6 6//6
f 22//6 6//6 28//6
f 28//6 6//6 29//6
f 28//6 29//6 27//6
f 27//6 29//6 30//6
f 27//6 30//6 3//6
f 3//6 30//6 31//6
f 3//6 31//6 6//6
f 6//6 31//6 32//6
f 6//6 32//6 29//6
f 17//3 20//3 30//3
f 30//3 20//3 31//3
f 20//4 19//4 31//4
f 31//4 19//4 32//4
f 19//1 18//1 32//1
f 32//1 18//1 29//1
f 18//2 17//2 29//2
f 29//2 17//2 30//2
f 11//3 16//3 23//3
f 23//3 16//3 27//3
f 16//4 15//4 27//4
f 27//4 15//4 28//4
f 15//1 12//1 28//1
f 28//1 12//1 22//1
f 12//2 11//2 22//2
f 22//2 11//2 23//2
f 10//3 9//3 24//3
f 24//3 9//3 21//3
f 9//4 13//4 21//4
f 21//4 13//4 26//4
f 13//1 14//1 26//1
f 26//1 14//1 25//1
f 14//2 10//2 25//2
f 25//2 10//2 24//2
f 33//6 34//6 35//6
f 35//6 34//6 36//6
f 37//4 33//4 38//4
f 38//4 33//4 35//4
f 39//3 34//3 37//3
f 37//3 34//3 33//3
f 40//2 36//2 39//2
f 39//2 36//2 34//2
f 38//1 35//1 40//1
f 40//1 35//1 36//1
f 37//5 38//5 39//5
f 39//5 38//5 40//5
f 41//6 42//6 43//6
f 43//6 42//6 44//6
f 45//4 41//4 46//4
f 46//4 41//4 43//4
f 47//3 42//3 45//3
f 45//3 42//3 41//3
f 48//2 44//2 47//2
f 47//2 44//2 42//2
f 46//1 43//1 48//1
f 48//1 43//1 44//1
f 45//5 46//5 47//5
f 47//5 46//5 48//5
f 49//6 50//6 51//6
f 51//6 50//6 52//6
f 53//4 49//4 54//4
f 54//4 49//4 51//4
f 55//3 50//3 53//3
f 53//3 50//3 49//3
f 56//2 52//2 55//2
f 55//2 52//2 50//2
f 54//1 51//1 56//1
f 56//1 51//1 52//1
f 53//5 54//5 55//5
f 55//5 54//5 56//5
f 57//6 58//6 59//6
f 59//6 58//6 60//6
f 61//4 57//4 62//4
f 62//4 57//4 59//4
f 63//3 58//3 61//3
f 61//3 58//3 57//3
f 64//2 60//2 63//2
f 63//2 60//2 58//2
f 62//1 59//1 64//1
f 64//1 59//1 60//1
f 61//5 62//5 63//5
f 63//5 62//5 64//5
f 65//6 66//6 67//6
f 67//6 66//6 68//6
f 69//4 65//4 70//4
f 70//4 65//4 67//4
f 71//3 66//3 69//3
f 69//3 66//3 65//3
f 72//2 68//2 71//2
f 71//2 68//2 66//2
f 70//1 67//1 72//1
f 72//1 67//1 68//1
f 69//5 70//5 71//5
f 71//5 70//5 72//5
f 73//6 74//6 75//6
f 75//6 74//6 76//6
f 77//4 73//4 78//4
f 78//4 73//4 75//4
f 79//3 74//3 77//3
f 77//3 74//3 73//3
f 80//2 76//2 79//2
f 79//2 76//2 74//2
f 78//1 75//1 80//1
f 80//1 75//1 76//1
f 77//5 78//5 79//5
f 79//5 78//5 80//5
