# CAD Exchanger 3.19.0 (cadexchanger.com)
# Object Count: 1
mtllib Process Tower Containment Area.mtl
g Process Tower Containment Area
v 110269.676208 19.050000 -206281.250000
v 110269.676208 19.050000 -207805.252075
v 110269.676208 0.000000 -206281.250000
v 110269.676208 0.000000 -207805.252075
v 112403.274536 19.050000 -206281.250000
v 112403.274536 0.000000 -206281.250000
v 112403.274536 19.050000 -207805.252075
v 112403.274536 0.000000 -207805.252075
v 117344.352722 19.050000 -204529.632568
v 117344.352722 19.050000 -206053.634644
v 117344.352722 0.000000 -204529.632568
v 117344.352722 0.000000 -206053.634644
v 119477.951050 19.050000 -204529.632568
v 119477.951050 0.000000 -204529.632568
v 119477.951050 19.050000 -206053.634644
v 119477.951050 0.000000 -206053.634644
vn -1.000000 0.000000 0.000000
vn 0.000000 0.000000 1.000000
vn 1.000000 0.000000 0.000000
vn 0.000000 0.000000 -1.000000
vn 0.000000 1.000000 0.000000
vn 0.000000 -1.000000 0.000000
usemtl Material_1
f 1//1 2//1 3//1
f 3//1 2//1 4//1
f 5//2 1//2 6//2
f 6//2 1//2 3//2
f 7//3 5//3 8//3
f 8//3 5//3 6//3
f 2//4 7//4 4//4
f 4//4 7//4 8//4
f 5//5 7//5 1//5
f 1//5 7//5 2//5
f 8//6 6//6 4//6
f 4//6 6//6 3//6
f 9//1 10//1 11//1
f 11//1 10//1 12//1
f 13//2 9//2 14//2
f 14//2 9//2 11//2
f 15//3 13//3 16//3
f 16//3 13//3 14//3
f 10//4 15//4 12//4
f 12//4 15//4 16//4
f 13//5 15//5 9//5
f 9//5 15//5 10//5
f 16//6 14//6 12//6
f 12//6 14//6 11//6
g Process Tower Containment Area-1
v 119953.918457 304.800004 -207996.246338
v 125189.575195 304.800004 -207996.246338
v 125189.575195 304.800004 -208072.448730
v 110098.510742 304.800004 -204338.638306
v 104710.449219 304.800004 -204186.248779
v 114721.412659 304.800004 -204186.248779
v 110098.510742 304.800004 -207996.246338
v 109793.708801 304.800004 -207996.246338
v 109793.708801 304.800004 -204338.638306
v 104558.052063 304.800004 -204338.638306
v 104710.449219 304.800004 -166391.052246
v 104558.052063 304.800004 -166238.647461
v 114721.412659 304.800004 -166391.052246
v 114873.809814 304.800004 -166238.647461
v 114873.809814 304.800004 -204338.638306
v 119953.918457 304.800004 -204338.638306
v 115026.214600 304.800004 -204186.248779
v 125037.170410 304.800004 -204186.248779
v 104558.052063 304.800004 -207996.246338
v 104558.052063 304.800004 -208072.448730
v 114873.809814 304.800004 -208072.448730
v 114873.809814 304.800004 -207996.246338
v 119649.116516 304.800004 -207996.246338
v 119649.116516 304.800004 -204338.638306
v 115026.214600 304.800004 -166391.052246
v 125037.170410 304.800004 -166391.052246
v 125189.575195 304.800004 -166238.647461
v 125189.575195 304.800004 -204338.638306
v 125037.170410 304.800004 -245943.847656
v 125189.575195 304.800004 -246096.252441
v 115026.214600 304.800004 -245943.847656
v 114873.809814 304.800004 -246096.252441
v 115026.214600 304.800004 -208148.651123
v 125037.170410 304.800004 -208148.651123
v 114721.412659 304.800004 -245943.847656
v 104710.449219 304.800004 -245943.847656
v 104558.052063 304.800004 -246096.252441
v 104710.449219 304.800004 -208148.651123
v 114721.412659 304.800004 -208148.651123
v 109793.708801 0.000000 -207996.246338
v 104558.052063 0.000000 -207996.246338
v 104558.052063 0.000000 -208072.448730
v 119649.116516 0.000000 -204338.638306
v 125037.170410 0.000000 -204186.248779
v 115026.214600 0.000000 -204186.248779
v 119649.116516 0.000000 -207996.246338
v 119953.918457 0.000000 -207996.246338
v 119953.918457 0.000000 -204338.638306
v 125189.575195 0.000000 -204338.638306
v 125037.170410 0.000000 -166391.052246
v 125189.575195 0.000000 -166238.647461
v 115026.214600 0.000000 -166391.052246
v 114873.809814 0.000000 -166238.647461
v 114873.809814 0.000000 -204338.638306
v 109793.708801 0.000000 -204338.638306
v 114721.412659 0.000000 -204186.248779
v 104710.449219 0.000000 -204186.248779
v 125189.575195 0.000000 -207996.246338
v 125189.575195 0.000000 -208072.448730
v 114873.809814 0.000000 -208072.448730
v 114873.809814 0.000000 -207996.246338
v 110098.510742 0.000000 -207996.246338
v 110098.510742 0.000000 -204338.638306
v 114721.412659 0.000000 -166391.052246
v 104710.449219 0.000000 -166391.052246
v 104558.052063 0.000000 -166238.647461
v 104558.052063 0.000000 -204338.638306
v 114721.412659 0.000000 -245943.847656
v 114873.809814 0.000000 -246096.252441
v 114721.412659 0.000000 -208148.651123
v 104710.449219 0.000000 -208148.651123
v 104710.449219 0.000000 -245943.847656
v 104558.052063 0.000000 -246096.252441
v 125037.170410 0.000000 -245943.847656
v 125189.575195 0.000000 -246096.252441
v 125037.170410 0.000000 -208148.651123
v 115026.214600 0.000000 -208148.651123
v 115026.214600 0.000000 -245943.847656
vn 0.000000 1.000000 0.000000
vn 0.000000 -1.000000 0.000000
vn -1.000000 0.000000 0.000000
vn 0.000000 0.000000 1.000000
vn 0.000000 0.000000 -1.000000
vn 1.000000 0.000000 0.000000
usemtl Material_2
f 17//7 18//7 19//7
f 20//7 21//7 22//7
f 23//7 24//7 20//7
f 20//7 24//7 25//7
f 20//7 25//7 21//7
f 21//7 25//7 26//7
f 21//7 26//7 27//7
f 27//7 26//7 28//7
f 27//7 28//7 29//7
f 29//7 28//7 30//7
f 29//7 30//7 22//7
f 22//7 30//7 31//7
f 22//7 31//7 20//7
f 32//7 33//7 34//7
f 35//7 24//7 36//7
f 36//7 24//7 23//7
f 36//7 23//7 37//7
f 37//7 23//7 38//7
f 37//7 38//7 39//7
f 19//7 37//7 17//7
f 17//7 37//7 39//7
f 17//7 39//7 32//7
f 32//7 39//7 40//7
f 32//7 40//7 33//7
f 33//7 40//7 31//7
f 33//7 31//7 41//7
f 41//7 31//7 30//7
f 41//7 30//7 42//7
f 42//7 30//7 43//7
f 42//7 43//7 34//7
f 34//7 43//7 44//7
f 34//7 44//7 32//7
f 45//7 46//7 47//7
f 47//7 46//7 48//7
f 47//7 48//7 49//7
f 49//7 48//7 37//7
f 49//7 37//7 50//7
f 50//7 37//7 19//7
f 50//7 19//7 45//7
f 45//7 19//7 46//7
f 51//7 48//7 52//7
f 52//7 48//7 53//7
f 52//7 53//7 54//7
f 54//7 53//7 36//7
f 54//7 36//7 55//7
f 55//7 36//7 37//7
f 55//7 37//7 51//7
f 51//7 37//7 48//7
f 56//8 57//8 58//8
f 59//8 60//8 61//8
f 62//8 63//8 59//8
f 59//8 63//8 64//8
f 59//8 64//8 60//8
f 60//8 64//8 65//8
f 60//8 65//8 66//8
f 66//8 65//8 67//8
f 66//8 67//8 68//8
f 68//8 67//8 69//8
f 68//8 69//8 61//8
f 61//8 69//8 70//8
f 61//8 70//8 59//8
f 71//8 72//8 73//8
f 74//8 63//8 75//8
f 75//8 63//8 62//8
f 75//8 62//8 76//8
f 76//8 62//8 77//8
f 76//8 77//8 78//8
f 58//8 76//8 56//8
f 56//8 76//8 78//8
f 56//8 78//8 71//8
f 71//8 78//8 79//8
f 71//8 79//8 72//8
f 72//8 79//8 70//8
f 72//8 70//8 80//8
f 80//8 70//8 69//8
f 80//8 69//8 81//8
f 81//8 69//8 82//8
f 81//8 82//8 73//8
f 73//8 82//8 83//8
f 73//8 83//8 71//8
f 84//8 85//8 86//8
f 86//8 85//8 76//8
f 86//8 76//8 87//8
f 87//8 76//8 58//8
f 87//8 58//8 88//8
f 88//8 58//8 89//8
f 88//8 89//8 84//8
f 84//8 89//8 85//8
f 90//8 91//8 92//8
f 92//8 91//8 75//8
f 92//8 75//8 93//8
f 93//8 75//8 76//8
f 93//8 76//8 94//8
f 94//8 76//8 85//8
f 94//8 85//8 90//8
f 90//8 85//8 91//8
f 57//9 35//9 58//9
f 58//9 35//9 36//9
f 58//9 36//9 89//9
f 89//9 36//9 53//9
f 24//10 35//10 56//10
f 56//10 35//10 57//10
f 25//9 24//9 71//9
f 71//9 24//9 56//9
f 26//11 25//11 83//11
f 83//11 25//11 71//11
f 28//9 26//9 82//9
f 82//9 26//9 83//9
f 67//10 43//10 69//10
f 69//10 43//10 30//10
f 69//10 30//10 82//10
f 82//10 30//10 28//10
f 44//12 43//12 65//12
f 65//12 43//12 67//12
f 32//11 44//11 64//11
f 64//11 44//11 65//11
f 17//12 32//12 63//12
f 63//12 32//12 64//12
f 18//10 17//10 74//10
f 74//10 17//10 63//10
f 91//12 46//12 75//12
f 75//12 46//12 19//12
f 75//12 19//12 74//12
f 74//12 19//12 18//12
f 89//11 53//11 85//11
f 85//11 53//11 48//11
f 85//11 48//11 91//11
f 91//11 48//11 46//11
f 52//12 54//12 88//12
f 88//12 54//12 87//12
f 54//11 55//11 87//11
f 87//11 55//11 86//11
f 55//9 51//9 86//9
f 86//9 51//9 84//9
f 51//10 52//10 84//10
f 84//10 52//10 88//10
f 47//12 49//12 94//12
f 94//12 49//12 93//12
f 49//11 50//11 93//11
f 93//11 50//11 92//11
f 50//9 45//9 92//9
f 92//9 45//9 90//9
f 45//10 47//10 90//10
f 90//10 47//10 94//10
f 62//10 39//10 77//10
f 77//10 39//10 38//10
f 77//10 38//10 78//10
f 78//10 38//10 23//10
f 23//12 20//12 78//12
f 78//12 20//12 79//12
f 79//11 20//11 70//11
f 70//11 20//11 31//11
f 70//11 31//11 59//11
f 59//11 31//11 40//11
f 40//9 39//9 59//9
f 59//9 39//9 62//9
f 21//12 27//12 73//12
f 73//12 27//12 81//12
f 27//11 29//11 81//11
f 81//11 29//11 80//11
f 29//9 22//9 80//9
f 80//9 22//9 72//9
f 22//10 21//10 72//10
f 72//10 21//10 73//10
f 33//12 41//12 61//12
f 61//12 41//12 68//12
f 41//11 42//11 68//11
f 68//11 42//11 66//11
f 42//9 34//9 66//9
f 66//9 34//9 60//9
f 34//10 33//10 60//10
f 60//10 33//10 61//10
