# CAD Exchanger 3.19.0 (cadexchanger.com)
# Object Count: 1
mtllib Roads - Gravel.mtl
g Roads - Gravel
v 15239.881516 12.700000 -94749.031067
v 120685.371399 12.700000 -94749.031067
v 15239.881516 0.000000 -94749.031067
v 120685.371399 0.000000 -94749.031067
v 13544.272423 12.700000 -94940.078735
v 13544.272423 0.000000 -94940.078735
v 11933.688164 12.700000 -95503.646851
v 11933.688164 0.000000 -95503.646851
v 10488.889694 12.700000 -96411.476135
v 10488.889694 0.000000 -96411.476135
v 9282.325745 12.700000 -97618.041992
v 9282.325745 0.000000 -97618.041992
v 8374.499321 12.700000 -99062.835693
v 8374.499321 0.000000 -99062.835693
v 7810.931206 12.700000 -100673.423767
v 7810.931206 0.000000 -100673.423767
v 7619.882107 12.700000 -102369.033813
v 7619.882107 0.000000 -102369.033813
v 7619.882107 12.700000 -163313.644409
v 7619.882107 0.000000 -163313.644409
v 7879.527092 12.700000 -165285.842896
v 7879.527092 0.000000 -165285.842896
v 8640.768051 12.700000 -167123.641968
v 8640.768051 0.000000 -167123.641968
v 9851.728439 12.700000 -168701.797485
v 9851.728439 0.000000 -168701.797485
v 11429.882050 12.700000 -169912.750244
v 11429.882050 0.000000 -169912.750244
v 13267.681122 12.700000 -170673.995972
v 13267.681122 0.000000 -170673.995972
v 15239.881516 12.700000 -170933.639526
v 15239.881516 0.000000 -170933.639526
v 69506.950378 12.700000 -170933.639526
v 69506.950378 0.000000 -170933.639526
v 69506.950378 12.700000 -174591.232300
v 69506.950378 0.000000 -174591.232300
v 15239.881516 12.700000 -174591.232300
v 15239.881516 0.000000 -174591.232300
v 13544.272423 12.700000 -174782.287598
v 13544.272423 0.000000 -174782.287598
v 11933.688164 12.700000 -175345.855713
v 11933.688164 0.000000 -175345.855713
v 10488.889694 12.700000 -176253.677368
v 10488.889694 0.000000 -176253.677368
v 9282.325745 12.700000 -177460.250854
v 9282.325745 0.000000 -177460.250854
v 8374.499321 12.700000 -178905.044556
v 8374.499321 0.000000 -178905.044556
v 7810.931206 12.700000 -180515.625000
v 7810.931206 0.000000 -180515.625000
v 7619.882107 12.700000 -182211.242676
v 7619.882107 0.000000 -182211.242676
v 7620.319366 12.700000 -185326.049805
v 7620.319366 0.000000 -185326.049805
v 7880.195618 12.700000 -187298.034668
v 7880.195618 0.000000 -187298.034668
v 8641.562462 12.700000 -189135.589600
v 8641.562462 0.000000 -189135.589600
v 9852.543831 12.700000 -190713.516235
v 9852.543831 0.000000 -190713.516235
v 11430.628777 12.700000 -191924.270630
v 11430.628777 0.000000 -191924.270630
v 13268.290520 12.700000 -192685.379028
v 13268.290520 0.000000 -192685.379028
v 15240.319252 12.700000 -192944.976807
v 15240.319252 0.000000 -192944.976807
v 69506.950378 12.700000 -192944.976807
v 69506.950378 0.000000 -192944.976807
v 69506.950378 12.700000 -217676.239014
v 69506.950378 0.000000 -217676.239014
v 77533.370972 12.700000 -217676.223755
v 77533.370972 -0.000000 -217676.223755
v 77533.386230 12.700000 -209804.244995
v 77533.386230 0.000000 -209804.244995
v 89470.451355 12.700000 -209804.244995
v 89470.451355 0.000000 -209804.244995
v 89470.451355 12.700000 -234503.784180
v 89470.451355 0.000000 -234503.784180
v 80376.998901 12.700000 -239753.890991
v 80376.998901 0.000000 -239753.890991
v 79748.512268 12.700000 -239884.521484
v 79748.512268 0.000000 -239884.521484
v 64438.568115 12.700000 -248723.709106
v 64438.568115 -0.000000 -248723.709106
v 73582.565308 12.700000 -264561.584473
v 73582.565308 -0.000000 -264561.584473
v 90109.947205 12.700000 -255087.844849
v 90109.947205 0.000000 -255087.844849
v 100024.154663 12.700000 -255087.844849
v 100024.154663 0.000000 -255087.844849
v 100024.154663 12.700000 -327875.366211
v 100024.154663 0.000000 -327875.366211
v 7750.559330 12.700000 -327875.366211
v 7750.559330 0.000000 -327875.366211
v 7628.640652 12.700000 -311519.256592
v 7628.640652 -0.000000 -311519.256592
v 304.681987 12.700000 -311519.256592
v 304.681987 0.000000 -311519.256592
v 304.681987 12.700000 -74832.283020
v 304.681987 0.000000 -74832.283020
v 6400.681973 12.700000 -74832.283020
v 6400.681973 0.000000 -74832.283020
v 6487.102509 12.700000 -75552.940369
v 6487.102509 0.000000 -75552.940369
v 6741.463184 12.700000 -76232.734680
v 6741.463184 0.000000 -76232.734680
v 7149.340153 12.700000 -76833.114624
v 7149.340153 0.000000 -76833.114624
v 7687.604904 12.700000 -77320.037842
v 7687.604904 0.000000 -77320.037842
v 8325.733185 12.700000 -77665.885925
v 8325.733185 0.000000 -77665.885925
v 9027.540207 12.700000 -77851.043701
v 9027.540207 0.000000 -77851.043701
v 9753.228188 12.700000 -77865.028381
v 9753.228188 0.000000 -77865.028381
v 10461.647034 12.700000 -77707.038879
v 10461.647034 0.000000 -77707.038879
v 11112.624168 12.700000 -77386.024475
v 11112.624168 0.000000 -77386.024475
v 11669.244766 12.700000 -76920.204163
v 11669.244766 0.000000 -76920.204163
v 12099.946022 12.700000 -76335.975647
v 12099.946022 0.000000 -76335.975647
v 28894.979477 12.700000 -76054.588318
v 28894.979477 -0.000000 -76054.588318
v 28149.707794 12.700000 -77891.105652
v 28149.707794 0.000000 -77891.105652
v 27903.266907 12.700000 -79857.696533
v 27903.266907 0.000000 -79857.696533
v 28172.330856 12.700000 -81821.319580
v 28172.330856 0.000000 -81821.319580
v 28938.695908 12.700000 -83649.124146
v 28938.695908 0.000000 -83649.124146
v 30150.516510 12.700000 -85217.468262
v 30150.516510 0.000000 -85217.468262
v 31725.809097 12.700000 -86420.242310
v 31725.809097 0.000000 -86420.242310
v 33558.002472 12.700000 -87176.071167
v 33558.002472 0.000000 -87176.071167
v 35523.139954 12.700000 -87433.830261
v 35523.139954 0.000000 -87433.830261
v 120685.371399 12.700000 -87433.830261
v 120685.371399 0.000000 -87433.830261
vn 0.000000 0.000000 -1.000000
vn 0.222521 0.000000 -0.974928
vn 0.433884 0.000000 -0.900969
vn 0.623490 0.000000 -0.781832
vn 0.781832 0.000000 -0.623490
vn 0.900969 0.000000 -0.433884
vn 0.974928 0.000000 -0.222521
vn 1.000000 0.000000 0.000000
vn 0.965926 0.000000 0.258819
vn 0.866025 0.000000 0.500000
vn 0.707107 0.000000 0.707107
vn 0.500000 0.000000 0.866025
vn 0.258819 0.000000 0.965926
vn 0.000000 0.000000 1.000000
vn 1.000000 0.000000 0.000140
vn 0.965896 0.000000 0.258932
vn 0.865979 0.000000 0.500081
vn 0.707057 0.000000 0.707156
vn 0.499959 0.000000 0.866049
vn 0.258796 0.000000 0.965932
vn -0.000002 0.000000 1.000000
vn -1.000000 0.000000 0.000002
vn 0.500000 0.000000 -0.866025
vn 0.203489 0.000000 -0.979077
vn -0.497307 0.000000 0.867575
vn -0.999972 0.000000 -0.007454
vn -1.000000 0.000000 0.000000
vn 0.971647 0.000000 0.236437
vn 0.888195 0.000000 0.459466
vn 0.754377 0.000000 0.656441
vn 0.577781 0.000000 0.816192
vn 0.368421 0.000000 0.929659
vn 0.138170 0.000000 0.990409
vn -0.099917 0.000000 0.994996
vn -0.332338 0.000000 0.943160
vn -0.545913 0.000000 0.837842
vn -0.728531 0.000000 0.685013
vn -0.869837 0.000000 0.493339
vn -0.016752 0.000000 0.999860
vn 0.869837 0.000000 -0.493339
vn 0.967642 0.000000 -0.252326
vn 0.999983 0.000000 0.005756
vn 0.964673 0.000000 0.263449
vn 0.864100 0.000000 0.503320
vn 0.705069 0.000000 0.709139
vn 0.498337 0.000000 0.866983
vn 0.257892 0.000000 0.966174
vn 0.000000 1.000000 0.000000
vn 0.000000 -1.000000 0.000000
usemtl Material_1
f 1//1 2//1 3//1
f 3//1 2//1 4//1
f 1//1 3//1 5//2
f 5//2 3//1 6//2
f 5//2 6//2 7//3
f 7//3 6//2 8//3
f 7//3 8//3 9//4
f 9//4 8//3 10//4
f 9//4 10//4 11//5
f 11//5 10//4 12//5
f 11//5 12//5 13//6
f 13//6 12//5 14//6
f 13//6 14//6 15//7
f 15//7 14//6 16//7
f 15//7 16//7 17//8
f 17//8 16//7 18//8
f 19//8 17//8 20//8
f 20//8 17//8 18//8
f 19//8 20//8 21//9
f 21//9 20//8 22//9
f 21//9 22//9 23//10
f 23//10 22//9 24//10
f 23//10 24//10 25//11
f 25//11 24//10 26//11
f 25//11 26//11 27//12
f 27//12 26//11 28//12
f 27//12 28//12 29//13
f 29//13 28//12 30//13
f 29//13 30//13 31//14
f 31//14 30//13 32//14
f 33//14 31//14 34//14
f 34//14 31//14 32//14
f 35//8 33//8 36//8
f 36//8 33//8 34//8
f 37//1 35//1 38//1
f 38//1 35//1 36//1
f 37//1 38//1 39//2
f 39//2 38//1 40//2
f 39//2 40//2 41//3
f 41//3 40//2 42//3
f 41//3 42//3 43//4
f 43//4 42//3 44//4
f 43//4 44//4 45//5
f 45//5 44//4 46//5
f 45//5 46//5 47//6
f 47//6 46//5 48//6
f 47//6 48//6 49//7
f 49//7 48//6 50//7
f 49//7 50//7 51//8
f 51//8 50//7 52//8
f 53//15 51//15 54//15
f 54//15 51//15 52//15
f 53//15 54//15 55//16
f 55//16 54//15 56//16
f 55//16 56//16 57//17
f 57//17 56//16 58//17
f 57//17 58//17 59//18
f 59//18 58//17 60//18
f 59//18 60//18 61//19
f 61//19 60//18 62//19
f 61//19 62//19 63//20
f 63//20 62//19 64//20
f 63//20 64//20 65//14
f 65//14 64//20 66//14
f 67//14 65//14 68//14
f 68//14 65//14 66//14
f 69//8 67//8 70//8
f 70//8 67//8 68//8
f 71//21 69//21 72//21
f 72//21 69//21 70//21
f 73//22 71//22 74//22
f 74//22 71//22 72//22
f 75//14 73//14 76//14
f 76//14 73//14 74//14
f 77//8 75//8 78//8
f 78//8 75//8 76//8
f 79//23 77//23 80//23
f 80//23 77//23 78//23
f 81//24 79//24 82//24
f 82//24 79//24 80//24
f 83//23 81//23 84//23
f 84//23 81//23 82//23
f 85//10 83//10 86//10
f 86//10 83//10 84//10
f 87//25 85//25 88//25
f 88//25 85//25 86//25
f 89//14 87//14 90//14
f 90//14 87//14 88//14
f 91//8 89//8 92//8
f 92//8 89//8 90//8
f 93//1 91//1 94//1
f 94//1 91//1 92//1
f 95//26 93//26 96//26
f 96//26 93//26 94//26
f 97//1 95//1 98//1
f 98//1 95//1 96//1
f 99//27 97//27 100//27
f 100//27 97//27 98//27
f 101//14 99//14 102//14
f 102//14 99//14 100//14
f 101//8 102//8 103//28
f 103//28 102//8 104//28
f 103//28 104//28 105//29
f 105//29 104//28 106//29
f 105//29 106//29 107//30
f 107//30 106//29 108//30
f 107//30 108//30 109//31
f 109//31 108//30 110//31
f 109//31 110//31 111//32
f 111//32 110//31 112//32
f 111//32 112//32 113//33
f 113//33 112//32 114//33
f 113//33 114//33 115//34
f 115//34 114//33 116//34
f 115//34 116//34 117//35
f 117//35 116//34 118//35
f 117//35 118//35 119//36
f 119//36 118//35 120//36
f 119//36 120//36 121//37
f 121//37 120//36 122//37
f 121//37 122//37 123//38
f 123//38 122//37 124//38
f 125//39 123//39 126//39
f 126//39 123//39 124//39
f 125//40 126//40 127//41
f 127//41 126//40 128//41
f 127//41 128//41 129//42
f 129//42 128//41 130//42
f 129//42 130//42 131//43
f 131//43 130//42 132//43
f 131//43 132//43 133//44
f 133//44 132//43 134//44
f 133//44 134//44 135//45
f 135//45 134//44 136//45
f 135//45 136//45 137//46
f 137//46 136//45 138//46
f 137//46 138//46 139//47
f 139//47 138//46 140//47
f 139//47 140//47 141//14
f 141//14 140//47 142//14
f 143//14 141//14 144//14
f 144//14 141//14 142//14
f 2//8 143//8 4//8
f 4//8 143//8 144//8
f 83//48 85//48 93//48
f 49//48 27//48 47//48
f 47//48 27//48 45//48
f 69//48 81//48 83//48
f 87//48 89//48 85//48
f 85//48 89//48 91//48
f 85//48 91//48 93//48
f 137//48 139//48 99//48
f 97//48 63//48 65//48
f 29//48 41//48 27//48
f 27//48 41//48 43//48
f 27//48 43//48 45//48
f 33//48 35//48 31//48
f 31//48 35//48 37//48
f 31//48 37//48 29//48
f 29//48 37//48 39//48
f 29//48 39//48 41//48
f 73//48 75//48 71//48
f 71//48 75//48 77//48
f 71//48 77//48 69//48
f 69//48 77//48 79//48
f 69//48 79//48 81//48
f 93//48 95//48 83//48
f 83//48 95//48 97//48
f 83//48 97//48 69//48
f 69//48 97//48 65//48
f 69//48 65//48 67//48
f 135//48 111//48 133//48
f 133//48 111//48 113//48
f 133//48 113//48 131//48
f 143//48 2//48 141//48
f 141//48 2//48 1//48
f 141//48 1//48 139//48
f 51//48 53//48 97//48
f 97//48 53//48 55//48
f 97//48 55//48 57//48
f 57//48 59//48 97//48
f 97//48 59//48 61//48
f 97//48 61//48 63//48
f 131//48 113//48 129//48
f 129//48 113//48 115//48
f 129//48 115//48 117//48
f 101//48 103//48 99//48
f 99//48 103//48 105//48
f 99//48 105//48 107//48
f 7//48 9//48 99//48
f 117//48 119//48 129//48
f 129//48 119//48 121//48
f 129//48 121//48 127//48
f 127//48 121//48 123//48
f 127//48 123//48 125//48
f 135//48 137//48 111//48
f 111//48 137//48 99//48
f 111//48 99//48 109//48
f 109//48 99//48 107//48
f 139//48 1//48 99//48
f 99//48 1//48 5//48
f 99//48 5//48 7//48
f 9//48 11//48 99//48
f 99//48 11//48 13//48
f 99//48 13//48 15//48
f 15//48 17//48 99//48
f 99//48 17//48 19//48
f 99//48 19//48 97//48
f 97//48 19//48 21//48
f 97//48 21//48 51//48
f 51//48 21//48 23//48
f 51//48 23//48 49//48
f 49//48 23//48 25//48
f 49//48 25//48 27//48
f 128//49 126//49 124//49
f 90//49 88//49 92//49
f 92//49 88//49 86//49
f 92//49 86//49 94//49
f 94//49 86//49 96//49
f 96//49 86//49 84//49
f 96//49 84//49 98//49
f 28//49 50//49 48//49
f 66//49 64//49 98//49
f 76//49 74//49 78//49
f 78//49 74//49 72//49
f 78//49 72//49 80//49
f 80//49 72//49 70//49
f 80//49 70//49 82//49
f 82//49 70//49 84//49
f 30//49 40//49 32//49
f 32//49 40//49 38//49
f 32//49 38//49 34//49
f 34//49 38//49 36//49
f 48//49 46//49 28//49
f 28//49 46//49 44//49
f 28//49 44//49 30//49
f 30//49 44//49 42//49
f 30//49 42//49 40//49
f 84//49 70//49 98//49
f 98//49 70//49 68//49
f 98//49 68//49 66//49
f 104//49 102//49 100//49
f 4//49 144//49 3//49
f 3//49 144//49 142//49
f 110//49 108//49 98//49
f 64//49 62//49 98//49
f 98//49 62//49 60//49
f 98//49 60//49 58//49
f 142//49 140//49 3//49
f 3//49 140//49 138//49
f 3//49 138//49 6//49
f 6//49 138//49 136//49
f 6//49 136//49 8//49
f 8//49 136//49 134//49
f 8//49 134//49 10//49
f 10//49 134//49 132//49
f 58//49 56//49 98//49
f 98//49 56//49 54//49
f 98//49 54//49 52//49
f 120//49 118//49 130//49
f 130//49 118//49 116//49
f 130//49 116//49 114//49
f 98//49 108//49 100//49
f 100//49 108//49 106//49
f 100//49 106//49 104//49
f 128//49 124//49 130//49
f 130//49 124//49 122//49
f 130//49 122//49 120//49
f 110//49 98//49 112//49
f 112//49 98//49 18//49
f 112//49 18//49 16//49
f 132//49 130//49 10//49
f 10//49 130//49 114//49
f 10//49 114//49 12//49
f 12//49 114//49 112//49
f 12//49 112//49 14//49
f 14//49 112//49 16//49
f 28//49 26//49 50//49
f 50//49 26//49 24//49
f 50//49 24//49 52//49
f 52//49 24//49 22//49
f 52//49 22//49 98//49
f 98//49 22//49 20//49
f 98//49 20//49 18//49
