# CAD Exchanger 3.19.0 (cadexchanger.com)
# Object Count: 1
mtllib Staff Break Area.mtl
g Staff Break Area
v 171996.765137 0.000000 -215917.785645
v 171844.375610 0.000000 -215917.785645
v 171996.765137 2438.400030 -215917.785645
v 171844.375610 2438.400030 -215917.785645
v 171996.765137 2438.400030 -215765.380859
v 171996.765137 0.000000 -215765.380859
v 171844.375610 2438.400030 -215843.521118
v 171844.375610 0.000000 -215765.380859
v 171844.375610 2466.838837 -215765.380859
v 171922.500610 2438.400030 -215765.380859
v 159798.019409 2438.400030 -215765.380859
v 159798.019409 0.000000 -215765.380859
v 159872.283936 2438.400030 -215765.380859
v 159950.408936 0.000000 -215765.380859
v 159950.408936 2466.838837 -215765.380859
v 159950.408936 0.000000 -215917.785645
v 159798.019409 0.000000 -215917.785645
v 159950.408936 2438.400030 -215917.785645
v 159950.408936 2438.400030 -215843.521118
v 159798.019409 2438.400030 -215917.785645
v 159804.763794 0.000000 -204799.346924
v 159804.763794 0.000000 -204640.182495
v 159804.763794 2438.400030 -204799.346924
v 159804.763794 2438.400030 -204640.182495
v 159957.168579 0.000000 -204640.182495
v 159957.168579 2438.400030 -204640.182495
v 159957.168579 2438.400030 -204714.447021
v 159957.168579 0.000000 -204799.346924
v 159957.168579 2469.297647 -204799.346924
v 159872.283936 2438.400030 -204799.346924
v 171996.765137 2438.400030 -204792.587280
v 171996.765137 0.000000 -204792.587280
v 171922.500610 2438.400030 -204792.587280
v 171844.375610 0.000000 -204792.587280
v 171844.375610 2466.838837 -204792.587280
v 171996.765137 2438.400030 -204640.182495
v 171996.765137 0.000000 -204640.182495
v 171844.375610 0.000000 -204640.182495
v 171844.375610 2438.400030 -204640.182495
v 171844.375610 2438.400030 -204714.447021
v 165436.813354 4408.256054 -210126.586914
v 165436.813354 0.000000 -210126.586914
v 166357.971191 4408.256054 -210126.586914
v 166357.971191 0.000000 -210126.586914
v 166357.971191 0.000000 -210431.381226
v 165436.813354 0.000000 -210431.381226
v 166357.971191 4463.725090 -210278.991699
v 166357.971191 4408.256054 -210431.381226
v 165436.813354 4408.256054 -210431.381226
v 165436.813354 4463.725090 -210278.991699
vn 0.000000 0.000000 -1.000000
vn 1.000000 0.000000 0.000000
vn -1.000000 0.000000 0.000000
vn 0.000000 0.000000 1.000000
vn 0.000000 -1.000000 0.000000
usemtl Material_1
f 1//1 2//1 3//1
f 3//1 2//1 4//1
f 5//2 6//2 3//2
f 3//2 6//2 1//2
f 4//3 2//3 7//3
f 7//3 2//3 8//3
f 7//3 8//3 9//3
f 6//4 5//4 8//4
f 8//4 5//4 10//4
f 8//4 10//4 9//4
f 8//5 2//5 6//5
f 6//5 2//5 1//5
f 11//4 12//4 13//4
f 13//4 12//4 14//4
f 13//4 14//4 15//4
f 16//5 14//5 17//5
f 17//5 14//5 12//5
f 16//2 18//2 14//2
f 14//2 18//2 19//2
f 14//2 19//2 15//2
f 17//3 12//3 20//3
f 20//3 12//3 11//3
f 18//1 16//1 20//1
f 20//1 16//1 17//1
f 21//3 22//3 23//3
f 23//3 22//3 24//3
f 22//4 25//4 24//4
f 24//4 25//4 26//4
f 26//2 25//2 27//2
f 27//2 25//2 28//2
f 27//2 28//2 29//2
f 21//1 23//1 28//1
f 28//1 23//1 30//1
f 28//1 30//1 29//1
f 28//5 25//5 21//5
f 21//5 25//5 22//5
f 31//1 32//1 33//1
f 33//1 32//1 34//1
f 33//1 34//1 35//1
f 36//2 37//2 31//2
f 31//2 37//2 32//2
f 38//5 34//5 37//5
f 37//5 34//5 32//5
f 38//3 39//3 34//3
f 34//3 39//3 40//3
f 34//3 40//3 35//3
f 38//4 37//4 39//4
f 39//4 37//4 36//4
f 41//4 42//4 43//4
f 43//4 42//4 44//4
f 45//5 44//5 46//5
f 46//5 44//5 42//5
f 43//2 44//2 47//2
f 47//2 44//2 45//2
f 47//2 45//2 48//2
f 49//3 46//3 50//3
f 50//3 46//3 42//3
f 50//3 42//3 41//3
f 48//1 45//1 49//1
f 49//1 45//1 46//1
g Staff Break Area-1
v 166357.971191 4408.256054 -210126.586914
v 166357.971191 4463.725090 -210278.991699
v 171844.375610 2466.838837 -204792.587280
v 159957.168579 2469.297647 -204799.346924
v 165436.813354 4463.725090 -210278.991699
v 165436.813354 4408.256054 -210126.586914
v 159957.168579 2438.400030 -204714.447021
v 171844.375610 2438.400030 -204714.447021
v 165436.813354 4408.256054 -210431.381226
v 159950.408936 2466.838837 -215765.380859
v 171844.375610 2466.838837 -215765.380859
v 166357.971191 4408.256054 -210431.381226
v 171844.375610 2438.400030 -215843.521118
v 159950.408936 2438.400030 -215843.521118
v 171922.500610 2438.400030 -215765.380859
v 171996.765137 2438.400030 -215765.380859
v 171922.500610 2438.400030 -204792.587280
v 171996.765137 2438.400030 -204792.587280
v 159957.168579 2438.400030 -204640.182495
v 171844.375610 2438.400030 -204640.182495
v 159804.763794 2438.400030 -204640.182495
v 159798.019409 2438.400030 -204640.182495
v 159804.763794 2438.400030 -204799.346924
v 159798.019409 2438.400030 -215765.380859
v 159872.283936 2438.400030 -204799.346924
v 159872.283936 2438.400030 -215765.380859
v 171844.375610 2438.400030 -215917.785645
v 159950.408936 2438.400030 -215917.785645
v 171996.765137 2438.400030 -204640.182495
v 166357.971191 4490.755558 -210278.991699
v 171996.765137 2438.400030 -215917.785645
v 165436.813354 4490.755558 -210278.991699
v 159798.019409 2438.400030 -215917.785645
vn 0.000000 -0.939693 -0.342020
vn 0.000000 -0.939693 0.342020
vn 0.000000 -1.000000 0.000000
vn -0.342020 -0.939693 0.000000
vn 0.342020 -0.939693 0.000000
vn 0.342020 0.939693 0.000000
vn 0.000000 0.939693 -0.342020
vn -0.342020 0.939693 0.000000
vn 0.000000 0.939693 0.342020
usemtl Material_2
f 51//6 52//6 53//6
f 54//6 55//6 56//6
f 56//6 51//6 54//6
f 54//6 51//6 53//6
f 54//6 53//6 57//6
f 57//6 53//6 58//6
f 59//7 55//7 60//7
f 61//7 52//7 62//7
f 62//7 59//7 61//7
f 61//7 59//7 60//7
f 61//7 60//7 63//7
f 63//7 60//7 64//7
f 65//8 66//8 67//8
f 67//8 66//8 68//8
f 69//8 57//8 70//8
f 70//8 57//8 58//8
f 52//9 61//9 53//9
f 53//9 61//9 65//9
f 53//9 65//9 67//9
f 71//8 72//8 73//8
f 73//8 72//8 74//8
f 73//8 74//8 75//8
f 75//8 74//8 76//8
f 60//10 55//10 76//10
f 76//10 55//10 54//10
f 76//10 54//10 75//10
f 77//8 63//8 78//8
f 78//8 63//8 64//8
f 79//11 68//11 80//11
f 80//11 68//11 66//11
f 80//11 66//11 81//11
f 80//12 81//12 77//12
f 80//12 77//12 82//12
f 82//12 77//12 78//12
f 82//12 78//12 83//12
f 72//13 82//13 74//13
f 74//13 82//13 83//13
f 72//14 71//14 82//14
f 82//14 71//14 69//14
f 82//14 69//14 80//14
f 80//14 69//14 70//14
f 80//14 70//14 79//14
g Staff Break Area-2
v 163157.577515 2133.599997 -204640.182495
v 163157.577515 2133.599997 -204538.589478
v 162243.164063 2133.599997 -204640.182495
v 162243.164063 2133.599997 -204538.589478
v 163157.577515 -0.000000 -204640.182495
v 163157.577515 0.000000 -204538.589478
v 162243.164063 0.000000 -204640.182495
v 162243.164063 0.000000 -204538.589478
v 168643.966675 2133.599997 -204640.182495
v 168643.966675 2133.599997 -204538.589478
v 168643.966675 0.000000 -204640.182495
v 168643.966675 0.000000 -204538.589478
v 169558.364868 2133.599997 -204640.182495
v 169558.364868 2133.599997 -204538.589478
v 169558.364868 0.000000 -204640.182495
v 169558.364868 0.000000 -204538.589478
vn 0.000000 -1.000000 0.000000
vn -1.000000 0.000000 0.000000
vn 1.000000 0.000000 0.000000
usemtl Material_3
f 84//15 85//15 86//15
f 86//15 85//15 87//15
f 88//16 89//16 84//16
f 84//16 89//16 85//16
f 86//17 87//17 90//17
f 90//17 87//17 91//17
f 92//17 93//17 94//17
f 94//17 93//17 95//17
f 96//15 97//15 92//15
f 92//15 97//15 93//15
f 98//16 99//16 96//16
f 96//16 99//16 97//16
g Staff Break Area-3
v 168643.966675 0.000000 -204538.589478
v 163157.577515 0.000000 -204538.589478
v 168643.966675 0.000000 -204640.182495
v 163157.577515 0.000000 -204640.182495
v 159804.763794 2438.400030 -202201.782227
v 159804.763794 2438.400030 -204640.182495
v 159804.763794 0.000000 -202201.782227
v 159804.763794 0.000000 -204640.182495
v 171996.765137 2438.400030 -202201.782227
v 171996.765137 0.000000 -202201.782227
v 171996.765137 2438.400030 -204640.182495
v 171996.765137 0.000000 -204640.182495
v 169558.364868 0.000000 -204640.182495
v 169558.364868 2133.599997 -204640.182495
v 168643.966675 2133.599997 -204640.182495
v 162243.164063 0.000000 -204640.182495
v 162243.164063 2133.599997 -204640.182495
v 163157.577515 2133.599997 -204640.182495
v 169558.364868 0.000000 -204538.589478
v 171895.172119 0.000000 -204538.589478
v 171895.172119 0.000000 -202303.390503
v 159906.372070 0.000000 -202303.390503
v 159906.372070 0.000000 -204538.589478
v 162243.164063 0.000000 -204538.589478
v 159906.372070 2336.800098 -204538.589478
v 159906.372070 2336.800098 -202303.390503
v 171895.172119 2336.800098 -202303.390503
v 171895.172119 2336.800098 -204538.589478
v 169558.364868 2133.599997 -204538.589478
v 168643.966675 2133.599997 -204538.589478
v 162243.164063 2133.599997 -204538.589478
v 163157.577515 2133.599997 -204538.589478
vn 0.000000 -1.000000 0.000000
vn -1.000000 0.000000 0.000000
vn 0.000000 0.000000 1.000000
vn 1.000000 0.000000 0.000000
vn 0.000000 0.000000 -1.000000
vn 0.000000 1.000000 0.000000
usemtl Material_4
f 100//18 101//18 102//18
f 102//18 101//18 103//18
f 104//19 105//19 106//19
f 106//19 105//19 107//19
f 108//20 104//20 109//20
f 109//20 104//20 106//20
f 110//21 108//21 111//21
f 111//21 108//21 109//21
f 110//22 111//22 112//22
f 112//22 113//22 110//22
f 110//22 113//22 114//22
f 110//22 114//22 105//22
f 115//22 107//22 116//22
f 116//22 107//22 105//22
f 116//22 105//22 117//22
f 117//22 105//22 114//22
f 117//22 114//22 103//22
f 103//22 114//22 102//22
f 108//23 110//23 104//23
f 104//23 110//23 105//23
f 118//18 112//18 119//18
f 119//18 112//18 111//18
f 119//18 111//18 120//18
f 120//18 111//18 109//18
f 120//18 109//18 121//18
f 121//18 109//18 106//18
f 121//18 106//18 122//18
f 122//18 106//18 107//18
f 122//18 107//18 123//18
f 123//18 107//18 115//18
f 124//21 125//21 122//21
f 122//21 125//21 121//21
f 125//22 126//22 121//22
f 121//22 126//22 120//22
f 126//19 127//19 120//19
f 120//19 127//19 119//19
f 118//20 119//20 128//20
f 128//20 119//20 127//20
f 128//20 127//20 129//20
f 122//20 123//20 124//20
f 124//20 123//20 130//20
f 124//20 130//20 131//20
f 101//20 100//20 131//20
f 131//20 100//20 129//20
f 131//20 129//20 124//20
f 124//20 129//20 127//20
f 127//18 126//18 124//18
f 124//18 126//18 125//18
