# CAD Exchanger 3.19.0 (cadexchanger.com)
# Object Count: 1
mtllib Syngas Proc Pad 2.mtl
g Syngas Proc Pad 2
v 101891.181946 457.199991 -264384.246826
v 134333.572388 457.199991 -264384.246826
v 101891.181946 0.000000 -264384.246826
v 134333.572388 0.000000 -264384.246826
v 101891.181946 457.199991 -255240.249634
v 101891.181946 0.000000 -255240.249634
v 134333.572388 457.199991 -255240.249634
v 134333.572388 0.000000 -255240.249634
vn 0.000000 0.000000 -1.000000
vn -1.000000 0.000000 0.000000
vn 0.000000 0.000000 1.000000
vn 1.000000 0.000000 0.000000
vn 0.000000 1.000000 0.000000
vn 0.000000 -1.000000 0.000000
usemtl Material_1
f 1//1 2//1 3//1
f 3//1 2//1 4//1
f 5//2 1//2 6//2
f 6//2 1//2 3//2
f 7//3 5//3 8//3
f 8//3 5//3 6//3
f 2//4 7//4 4//4
f 4//4 7//4 8//4
f 5//5 7//5 1//5
f 1//5 7//5 2//5
f 8//6 6//6 4//6
f 4//6 6//6 3//6
