# CAD Exchanger 3.19.0 (cadexchanger.com)
# Object Count: 1
mtllib Syngas Proc Pad 1.mtl
g Syngas Proc Pad 1
v 97238.761902 457.199991 -147950.637817
v 97238.761902 457.199991 -157094.650269
v 97238.761902 0.000000 -147950.637817
v 97238.761902 0.000000 -157094.650269
v 133723.968506 457.199991 -147950.637817
v 133723.968506 0.000000 -147950.637817
v 133723.968506 457.199991 -157094.650269
v 133723.968506 0.000000 -157094.650269
vn -1.000000 0.000000 0.000000
vn 0.000000 0.000000 1.000000
vn 1.000000 0.000000 0.000000
vn 0.000000 0.000000 -1.000000
vn 0.000000 1.000000 0.000000
vn 0.000000 -1.000000 0.000000
usemtl Material_1
f 1//1 2//1 3//1
f 3//1 2//1 4//1
f 5//2 1//2 6//2
f 6//2 1//2 3//2
f 7//3 5//3 8//3
f 8//3 5//3 6//3
f 2//4 7//4 4//4
f 4//4 7//4 8//4
f 5//5 7//5 1//5
f 1//5 7//5 2//5
f 8//6 6//6 4//6
f 4//6 6//6 3//6
