# CAD Exchanger 3.19.0 (cadexchanger.com)
# Object Count: 1
mtllib Tire Bay.mtl
g Tire Bay
v 73661.811829 3048.000097 -264283.599854
v 81136.978149 3048.000097 -259967.803955
v 81237.541199 3048.000097 -260141.998291
v 66814.247131 3048.000097 -247352.111816
v 66914.810181 3048.000097 -247526.290894
v 64438.568115 3048.000097 -248723.709106
v 64718.933105 3048.000097 -248794.082642
v 73582.565308 3048.000097 -264561.584473
v 73277.770996 3048.000097 -264033.660889
v 64743.370056 3048.000097 -249251.647949
v 74569.778442 3048.000097 -243106.689453
v 72722.030640 3048.000097 -244173.492432
v 74469.223022 3048.000097 -242932.510376
v 72621.467590 3048.000097 -243999.313354
v 79849.075317 7772.399902 -240058.685303
v 80376.998901 7772.399902 -239753.890991
v 79849.075317 3048.000097 -240058.685303
v 80376.998901 0.000000 -239753.890991
v 79849.075317 0.000000 -240058.685303
v 74569.778442 1219.200015 -243106.689453
v 77649.368286 3048.000097 -241328.689575
v 77649.368286 1219.200015 -241328.689575
v 64718.933105 -0.000000 -248794.082642
v 66914.810181 1219.200015 -247526.290894
v 69994.400024 1219.200015 -245748.291016
v 69994.400024 3048.000097 -245748.291016
v 72194.099426 3048.000097 -244478.286743
v 72194.099426 7772.399902 -244478.286743
v 72722.030640 7772.399902 -244173.492432
v 73661.811829 0.000000 -264283.599854
v 88791.954041 0.000000 -255548.217773
v 88791.954041 3048.000097 -255548.217773
v 81664.909363 3048.000097 -259663.024902
v 81664.909363 7772.399902 -259663.024902
v 81136.978149 7772.399902 -259967.803955
v 64438.568115 7772.399902 -248723.709106
v 64743.370056 7772.399902 -249251.647949
v 73277.770996 7772.399902 -264033.660889
v 73582.565308 7772.399902 -264561.584473
v 88790.122986 -0.000000 -255545.043945
v 89318.054199 -0.000000 -255240.249634
v 88790.122986 7772.399902 -255545.043945
v 89318.054199 7772.399902 -255240.249634
v 88892.509460 3048.000097 -255722.381592
v 81765.472412 3048.000097 -259837.188721
v 69893.836975 3048.000097 -245574.111938
v 72093.544006 3048.000097 -244304.107666
v 88892.509460 -0.000000 -255722.381592
v 81765.472412 -0.000000 -259837.188721
v 73582.565308 -0.000000 -264561.584473
v 81237.541199 -0.000000 -260141.998291
v 64743.370056 -0.000000 -249251.647949
v 73277.770996 -0.000000 -264033.660889
v 74469.223022 1219.200015 -242932.510376
v 72621.467590 0.000000 -243999.313354
v 77548.805237 1219.200015 -241154.510498
v 79748.512268 0.000000 -239884.521484
v 77548.805237 3048.000097 -241154.510498
v 79748.512268 3048.000097 -239884.521484
v 66814.247131 1219.200015 -247352.111816
v 64438.568115 0.000000 -248723.709106
v 69893.836975 1219.200015 -245574.111938
v 72093.544006 0.000000 -244304.107666
v 79544.273376 -0.000000 -239530.761719
v 79544.273376 9753.600121 -239530.761719
v 79748.512268 9753.600121 -239884.521484
v 79748.512268 7772.399902 -239884.521484
v 80072.204590 9753.600121 -239225.967407
v 80072.204590 0.000000 -239225.967407
v 80376.998901 9753.600121 -239753.890991
v 64743.370056 9753.600121 -249251.647949
v 64215.438843 9753.600121 -249556.442261
v 63910.640717 9753.600121 -249028.518677
v 89622.856140 9753.600121 -255768.173218
v 89094.924927 9753.600121 -256072.967529
v 89318.054199 9753.600121 -255240.249634
v 88892.509460 9753.600121 -255722.381592
v 81765.472412 9753.600121 -259837.188721
v 73054.641724 9753.600121 -264866.394043
v 72749.839783 9753.600121 -264338.470459
v 73582.565308 9753.600121 -264561.584473
v 73277.770996 9753.600121 -264033.660889
v 81237.541199 9753.600121 -260141.998291
v 64438.568115 9753.600121 -248723.709106
v 72093.544006 9753.600121 -244304.107666
v 71889.297485 9753.600121 -243950.363159
v 72417.228699 9753.600121 -243645.553589
v 72621.467590 9753.600121 -243999.313354
v 81441.780090 9753.600121 -260495.727539
v 81969.711304 9753.600121 -260190.948486
v 89094.924927 0.000000 -256072.967529
v 89622.856140 0.000000 -255768.173218
v 72749.839783 0.000000 -264338.470459
v 73054.641724 0.000000 -264866.394043
v 81441.780090 0.000000 -260495.727539
v 81969.711304 0.000000 -260190.948486
v 63910.640717 0.000000 -249028.518677
v 64215.438843 0.000000 -249556.442261
v 72417.228699 0.000000 -243645.553589
v 71889.297485 0.000000 -243950.363159
v 72621.467590 7772.399902 -243999.313354
v 72093.544006 7772.399902 -244304.107666
v 81765.472412 7772.399902 -259837.188721
v 81237.541199 7772.399902 -260141.998291
v 88892.509460 7772.399902 -255722.381592
v 73565.551758 7772.399902 -264278.106689
v 89183.456421 7772.399902 -255261.123657
v 64675.552368 7772.399902 -248880.187988
v 80293.457031 7772.399902 -239863.189697
v 80293.457031 9601.200104 -239863.189697
v 89183.456421 9601.200104 -255261.123657
v 73565.551758 9601.200104 -264278.106689
v 64675.552368 9601.200104 -248880.187988
vn 0.000000 1.000000 0.000000
vn 0.500000 0.000000 -0.866025
vn -0.500000 0.000000 0.866025
vn 0.866025 0.000000 0.500000
vn -0.866025 0.000000 -0.500000
vn 0.000000 -1.000000 0.000000
vn 0.500005 0.000000 -0.866022
usemtl Material_1
f 1//1 2//1 3//1
f 4//1 5//1 6//1
f 6//1 5//1 7//1
f 3//1 8//1 1//1
f 1//1 8//1 9//1
f 1//1 9//1 7//1
f 7//1 9//1 10//1
f 7//1 10//1 6//1
f 11//1 12//1 13//1
f 13//1 12//1 14//1
f 15//2 16//2 17//2
f 17//2 16//2 18//2
f 17//2 18//2 19//2
f 12//2 11//2 20//2
f 21//2 17//2 22//2
f 22//2 17//2 19//2
f 22//2 19//2 20//2
f 7//2 5//2 23//2
f 23//2 5//2 24//2
f 23//2 24//2 25//2
f 25//2 26//2 27//2
f 28//2 29//2 27//2
f 27//2 29//2 12//2
f 27//2 12//2 25//2
f 25//2 12//2 20//2
f 25//2 20//2 23//2
f 23//2 20//2 19//2
f 2//3 1//3 30//3
f 31//3 32//3 33//3
f 34//3 35//3 33//3
f 33//3 35//3 2//3
f 33//3 2//3 31//3
f 31//3 2//3 30//3
f 6//4 10//4 36//4
f 36//4 10//4 37//4
f 9//4 8//4 38//4
f 38//4 8//4 39//4
f 40//3 41//3 42//3
f 42//3 41//3 43//3
f 32//1 44//1 33//1
f 33//1 44//1 45//1
f 46//1 47//1 26//1
f 26//1 47//1 27//1
f 44//2 48//2 45//2
f 45//2 48//2 49//2
f 50//2 8//2 51//2
f 51//2 8//2 3//2
f 52//5 10//5 53//5
f 53//5 10//5 9//5
f 13//3 14//3 54//3
f 54//3 14//3 55//3
f 54//3 55//3 56//3
f 56//3 55//3 57//3
f 56//3 57//3 58//3
f 58//3 57//3 59//3
f 4//3 6//3 60//3
f 60//3 6//3 61//3
f 60//3 61//3 62//3
f 62//3 61//3 63//3
f 62//3 63//3 46//3
f 46//3 63//3 47//3
f 58//1 59//1 21//1
f 21//1 59//1 17//1
f 59//5 57//5 64//5
f 65//5 66//5 67//5
f 15//5 17//5 67//5
f 67//5 17//5 59//5
f 67//5 59//5 65//5
f 65//5 59//5 64//5
f 68//3 65//3 69//3
f 69//3 65//3 64//3
f 70//4 68//4 16//4
f 16//4 68//4 69//4
f 16//4 69//4 18//4
f 71//1 72//1 73//1
f 74//1 75//1 76//1
f 76//1 75//1 77//1
f 76//1 77//1 70//1
f 70//1 77//1 78//1
f 79//1 80//1 81//1
f 81//1 80//1 82//1
f 81//1 82//1 83//1
f 73//1 84//1 71//1
f 71//1 84//1 85//1
f 71//1 85//1 82//1
f 86//1 87//1 85//1
f 85//1 87//1 88//1
f 85//1 88//1 82//1
f 82//1 88//1 66//1
f 82//1 66//1 83//1
f 65//1 68//1 66//1
f 66//1 68//1 70//1
f 66//1 70//1 83//1
f 83//1 70//1 78//1
f 83//1 78//1 89//1
f 89//1 78//1 90//1
f 48//6 91//6 92//6
f 23//6 52//6 30//6
f 30//6 52//6 53//6
f 41//6 40//6 31//6
f 92//6 41//6 48//6
f 48//6 41//6 31//6
f 48//6 31//6 49//6
f 93//6 94//6 50//6
f 95//6 96//6 51//6
f 51//6 96//6 49//6
f 69//6 64//6 18//6
f 18//6 64//6 57//6
f 18//6 57//6 19//6
f 19//6 57//6 55//6
f 19//6 55//6 23//6
f 61//6 97//6 98//6
f 49//6 31//6 51//6
f 51//6 31//6 30//6
f 51//6 30//6 50//6
f 50//6 30//6 53//6
f 50//6 53//6 93//6
f 99//6 100//6 55//6
f 55//6 100//6 63//6
f 55//6 63//6 23//6
f 23//6 63//6 61//6
f 23//6 61//6 52//6
f 52//6 61//6 98//6
f 1//4 7//4 30//4
f 30//4 7//4 23//4
f 87//4 99//4 14//4
f 14//4 99//4 55//4
f 88//4 87//4 101//4
f 101//4 87//4 14//4
f 101//4 14//4 29//4
f 29//4 14//4 12//4
f 100//5 86//5 102//5
f 102//5 86//5 85//5
f 63//5 100//5 47//5
f 47//5 100//5 102//5
f 47//5 102//5 27//5
f 27//5 102//5 28//5
f 87//3 86//3 99//3
f 99//3 86//3 100//3
f 73//5 72//5 97//5
f 97//5 72//5 98//5
f 36//3 84//3 73//3
f 36//3 73//3 6//3
f 6//3 73//3 97//3
f 6//3 97//3 61//3
f 71//2 37//2 72//2
f 72//2 37//2 10//2
f 72//2 10//2 98//2
f 98//2 10//2 52//2
f 81//7 39//7 79//7
f 79//7 39//7 8//7
f 79//7 8//7 94//7
f 94//7 8//7 50//7
f 80//5 79//5 93//5
f 93//5 79//5 94//5
f 38//3 82//3 80//3
f 38//3 80//3 9//3
f 9//3 80//3 93//3
f 9//3 93//3 53//3
f 96//4 90//4 103//4
f 103//4 90//4 78//4
f 49//4 96//4 45//4
f 45//4 96//4 103//4
f 45//4 103//4 33//4
f 33//4 103//4 34//4
f 104//5 83//5 89//5
f 95//5 51//5 3//5
f 2//5 35//5 3//5
f 3//5 35//5 104//5
f 3//5 104//5 95//5
f 95//5 104//5 89//5
f 89//2 90//2 95//2
f 95//2 90//2 96//2
f 105//5 77//5 75//5
f 91//5 48//5 44//5
f 31//5 40//5 32//5
f 32//5 40//5 42//5
f 32//5 42//5 44//5
f 44//5 42//5 105//5
f 44//5 105//5 91//5
f 91//5 105//5 75//5
f 41//4 92//4 43//4
f 43//4 92//4 74//4
f 43//4 74//4 76//4
f 75//2 74//2 91//2
f 91//2 74//2 92//2
f 88//3 101//3 66//3
f 66//3 101//3 67//3
f 84//3 36//3 85//3
f 85//3 36//3 102//3
f 82//5 38//5 71//5
f 71//5 38//5 37//5
f 38//6 39//6 106//6
f 34//6 107//6 35//6
f 35//6 107//6 106//6
f 35//6 106//6 104//6
f 104//6 106//6 39//6
f 38//6 106//6 37//6
f 37//6 106//6 108//6
f 37//6 108//6 36//6
f 67//6 101//6 15//6
f 15//6 101//6 29//6
f 15//6 29//6 109//6
f 109//6 29//6 28//6
f 109//6 28//6 108//6
f 108//6 28//6 102//6
f 108//6 102//6 36//6
f 103//6 105//6 34//6
f 34//6 105//6 42//6
f 34//6 42//6 107//6
f 107//6 42//6 43//6
f 107//6 43//6 109//6
f 109//6 43//6 16//6
f 109//6 16//6 15//6
f 77//2 105//2 78//2
f 78//2 105//2 103//2
f 39//2 81//2 104//2
f 104//2 81//2 83//2
f 43//4 76//4 16//4
f 16//4 76//4 70//4
f 110//5 111//5 109//5
f 109//5 111//5 107//5
f 111//3 112//3 107//3
f 107//3 112//3 106//3
f 112//4 113//4 106//4
f 106//4 113//4 108//4
f 113//2 110//2 108//2
f 108//2 110//2 109//2
f 113//6 112//6 110//6
f 110//6 112//6 111//6
f 13//4 54//4 11//4
f 11//4 54//4 20//4
f 56//5 58//5 22//5
f 22//5 58//5 21//5
f 54//1 56//1 20//1
f 20//1 56//1 22//1
f 4//4 60//4 5//4
f 5//4 60//4 24//4
f 62//5 46//5 25//5
f 25//5 46//5 26//5
f 60//1 62//1 24//1
f 24//1 62//1 25//1
