# CAD Exchanger 3.19.0 (cadexchanger.com)
# Object Count: 1
mtllib Xfmr - Misc.mtl
g Xfmr - Misc
v 134911.132813 2438.400030 -269232.879639
v 140751.235962 2438.400030 -269232.879639
v 134911.132813 0.000000 -269232.879639
v 140751.235962 0.000000 -269232.879639
v 134911.132813 2438.400030 -266075.592041
v 134911.132813 0.000000 -266075.592041
v 140751.235962 2438.400030 -266075.592041
v 140751.235962 0.000000 -266075.592041
vn 0.000000 0.000000 -1.000000
vn -1.000000 0.000000 0.000000
vn 0.000000 0.000000 1.000000
vn 1.000000 0.000000 0.000000
vn 0.000000 1.000000 0.000000
vn 0.000000 -1.000000 0.000000
usemtl Material_1
f 1//1 2//1 3//1
f 3//1 2//1 4//1
f 5//2 1//2 6//2
f 6//2 1//2 3//2
f 7//3 5//3 8//3
f 8//3 5//3 6//3
f 2//4 7//4 4//4
f 4//4 7//4 8//4
f 5//5 7//5 1//5
f 1//5 7//5 2//5
f 8//6 6//6 4//6
f 4//6 6//6 3//6
