# CAD Exchanger 3.19.0 (cadexchanger.com)
# Object Count: 1
g Bollard
v 49498.386383 50.799999 -38522.640228
v 49526.390076 914.399981 -38520.046234
v 49526.390076 50.799999 -38520.046234
v 49553.440094 914.399981 -38512.348175
v 49553.440094 50.799999 -38512.348175
v 49578.613281 914.399981 -38499.813080
v 49578.613281 50.799999 -38499.813080
v 49601.058960 914.399981 -38482.864380
v 49601.058960 50.799999 -38482.864380
v 49620.002747 914.399981 -38462.081909
v 49620.002747 50.799999 -38462.081909
v 49634.807587 914.399981 -38438.171387
v 49634.807587 50.799999 -38438.171387
v 49644.969940 914.399981 -38411.945343
v 49644.969940 50.799999 -38411.945343
v 49650.135040 914.399981 -38384.304047
v 49650.135040 50.799999 -38384.304047
v 49650.135040 914.399981 -38356.178284
v 49650.135040 50.799999 -38356.178284
v 49644.969940 914.399981 -38328.533173
v 49644.969940 50.799999 -38328.533173
v 49634.807587 914.399981 -38302.310944
v 49634.807587 50.799999 -38302.310944
v 49620.002747 914.399981 -38278.400421
v 49620.002747 50.799999 -38278.400421
v 49601.058960 914.399981 -38257.614136
v 49601.058960 50.799999 -38257.614136
v 49578.613281 914.399981 -38240.669250
v 49578.613281 50.799999 -38240.669250
v 49553.440094 914.399981 -38228.130341
v 49553.440094 50.799999 -38228.130341
v 49526.390076 914.399981 -38220.436096
v 49526.390076 50.799999 -38220.436096
v 49498.386383 914.399981 -38217.842102
v 49498.386383 50.799999 -38217.842102
v 49470.382690 914.399981 -38220.436096
v 49470.382690 50.799999 -38220.436096
v 49443.332672 914.399981 -38228.130341
v 49443.332672 50.799999 -38228.130341
v 49418.159485 914.399981 -38240.669250
v 49418.159485 50.799999 -38240.669250
v 49395.713806 914.399981 -38257.614136
v 49395.713806 50.799999 -38257.614136
v 49376.770020 914.399981 -38278.400421
v 49376.770020 50.799999 -38278.400421
v 49361.961365 914.399981 -38302.310944
v 49361.961365 50.799999 -38302.310944
v 49351.802826 914.399981 -38328.533173
v 49351.802826 50.799999 -38328.533173
v 49346.637726 914.399981 -38356.178284
v 49346.637726 50.799999 -38356.178284
v 49346.637726 914.399981 -38384.304047
v 49346.637726 50.799999 -38384.304047
v 49351.802826 914.399981 -38411.945343
v 49351.802826 50.799999 -38411.945343
v 49361.961365 914.399981 -38438.171387
v 49361.961365 50.799999 -38438.171387
v 49376.770020 914.399981 -38462.081909
v 49376.770020 50.799999 -38462.081909
v 49395.713806 914.399981 -38482.864380
v 49395.713806 50.799999 -38482.864380
v 49418.159485 914.399981 -38499.813080
v 49418.159485 50.799999 -38499.813080
v 49443.332672 914.399981 -38512.348175
v 49443.332672 50.799999 -38512.348175
v 49470.382690 914.399981 -38520.046234
v 49470.382690 50.799999 -38520.046234
v 49498.386383 914.399981 -38522.640228
v 49498.386383 914.399981 -38370.239258
v 49082.019806 50.799999 -38481.803894
v 49609.951019 50.799999 -38786.605835
v 49082.019806 0.000000 -38481.803894
v 49609.951019 0.000000 -38786.605835
v 49386.821747 50.799999 -37953.876495
v 49386.821747 0.000000 -37953.876495
v 49914.749146 50.799999 -38258.674622
v 49914.749146 0.000000 -38258.674622
vn 0.000000 0.000000 -1.000000
vn 0.183750 0.000000 -0.982973
vn 0.361242 0.000000 -0.932472
vn 0.526432 0.000000 -0.850217
vn 0.673696 0.000000 -0.739009
vn 0.798017 0.000000 -0.602635
vn 0.895163 0.000000 -0.445738
vn 0.961826 0.000000 -0.273663
vn 0.995734 0.000000 -0.092268
vn 0.995734 0.000000 0.092268
vn 0.961826 0.000000 0.273663
vn 0.895163 0.000000 0.445738
vn 0.798017 0.000000 0.602635
vn 0.673696 0.000000 0.739009
vn 0.526432 0.000000 0.850217
vn 0.361242 0.000000 0.932472
vn 0.183750 0.000000 0.982973
vn 0.000000 0.000000 1.000000
vn -0.183750 0.000000 0.982973
vn -0.361242 0.000000 0.932472
vn -0.526432 0.000000 0.850217
vn -0.673696 0.000000 0.739009
vn -0.798017 0.000000 0.602635
vn -0.895163 0.000000 0.445738
vn -0.961826 0.000000 0.273663
vn -0.995734 0.000000 0.092268
vn -0.995734 0.000000 -0.092268
vn -0.961826 0.000000 -0.273663
vn -0.895163 0.000000 -0.445738
vn -0.798017 0.000000 -0.602635
vn -0.673696 0.000000 -0.739009
vn -0.526432 0.000000 -0.850217
vn -0.361242 0.000000 -0.932472
vn -0.183750 0.000000 -0.982973
vn 0.000000 1.000000 0.000000
vn -0.500000 0.000000 -0.866025
vn -0.866025 0.000000 0.500000
vn 0.500000 0.000000 0.866025
vn 0.866025 0.000000 -0.500000
vn 0.000000 -1.000000 0.000000
f 1//1 2//2 3//2
f 3//2 2//2 4//3
f 3//2 4//3 5//3
f 5//3 4//3 6//4
f 5//3 6//4 7//4
f 7//4 6//4 8//5
f 7//4 8//5 9//5
f 9//5 8//5 10//6
f 9//5 10//6 11//6
f 11//6 10//6 12//7
f 11//6 12//7 13//7
f 13//7 12//7 14//8
f 13//7 14//8 15//8
f 15//8 14//8 16//9
f 15//8 16//9 17//9
f 17//9 16//9 18//10
f 17//9 18//10 19//10
f 19//10 18//10 20//11
f 19//10 20//11 21//11
f 21//11 20//11 22//12
f 21//11 22//12 23//12
f 23//12 22//12 24//13
f 23//12 24//13 25//13
f 25//13 24//13 26//14
f 25//13 26//14 27//14
f 27//14 26//14 28//15
f 27//14 28//15 29//15
f 29//15 28//15 30//16
f 29//15 30//16 31//16
f 31//16 30//16 32//17
f 31//16 32//17 33//17
f 33//17 32//17 34//18
f 33//17 34//18 35//18
f 35//18 34//18 36//19
f 35//18 36//19 37//19
f 37//19 36//19 38//20
f 37//19 38//20 39//20
f 39//20 38//20 40//21
f 39//20 40//21 41//21
f 41//21 40//21 42//22
f 41//21 42//22 43//22
f 43//22 42//22 44//23
f 43//22 44//23 45//23
f 45//23 44//23 46//24
f 45//23 46//24 47//24
f 47//24 46//24 48//25
f 47//24 48//25 49//25
f 49//25 48//25 50//26
f 49//25 50//26 51//26
f 51//26 50//26 52//27
f 51//26 52//27 53//27
f 53//27 52//27 54//28
f 53//27 54//28 55//28
f 55//28 54//28 56//29
f 55//28 56//29 57//29
f 57//29 56//29 58//30
f 57//29 58//30 59//30
f 59//30 58//30 60//31
f 59//30 60//31 61//31
f 61//31 60//31 62//32
f 61//31 62//32 63//32
f 63//32 62//32 64//33
f 63//32 64//33 65//33
f 65//33 64//33 66//34
f 65//33 66//34 67//34
f 67//34 66//34 68//1
f 67//34 68//1 1//1
f 1//1 68//1 2//2
f 34//35 32//35 69//35
f 40//35 38//35 69//35
f 69//35 38//35 36//35
f 69//35 36//35 34//35
f 46//35 44//35 69//35
f 69//35 44//35 42//35
f 69//35 42//35 40//35
f 52//35 50//35 69//35
f 69//35 50//35 48//35
f 69//35 48//35 46//35
f 58//35 56//35 69//35
f 69//35 56//35 54//35
f 69//35 54//35 52//35
f 64//35 62//35 69//35
f 69//35 62//35 60//35
f 69//35 60//35 58//35
f 2//35 68//35 69//35
f 69//35 68//35 66//35
f 69//35 66//35 64//35
f 8//35 6//35 69//35
f 69//35 6//35 4//35
f 69//35 4//35 2//35
f 14//35 12//35 69//35
f 69//35 12//35 10//35
f 69//35 10//35 8//35
f 20//35 18//35 69//35
f 69//35 18//35 16//35
f 69//35 16//35 14//35
f 26//35 24//35 69//35
f 69//35 24//35 22//35
f 69//35 22//35 20//35
f 32//35 30//35 69//35
f 69//35 30//35 28//35
f 69//35 28//35 26//35
f 70//36 71//36 72//36
f 72//36 71//36 73//36
f 74//37 70//37 75//37
f 75//37 70//37 72//37
f 76//38 74//38 77//38
f 77//38 74//38 75//38
f 71//39 76//39 73//39
f 73//39 76//39 77//39
f 39//35 41//35 74//35
f 5//35 7//35 71//35
f 39//35 74//35 37//35
f 5//35 71//35 3//35
f 70//35 49//35 51//35
f 70//35 63//35 71//35
f 71//35 63//35 65//35
f 65//35 67//35 71//35
f 71//35 67//35 1//35
f 71//35 1//35 3//35
f 76//35 15//35 17//35
f 76//35 29//35 74//35
f 74//35 29//35 31//35
f 31//35 33//35 74//35
f 74//35 33//35 35//35
f 74//35 35//35 37//35
f 41//35 43//35 74//35
f 74//35 43//35 45//35
f 74//35 45//35 70//35
f 70//35 45//35 47//35
f 70//35 47//35 49//35
f 51//35 53//35 70//35
f 70//35 53//35 55//35
f 70//35 55//35 57//35
f 57//35 59//35 70//35
f 70//35 59//35 61//35
f 70//35 61//35 63//35
f 7//35 9//35 71//35
f 71//35 9//35 11//35
f 71//35 11//35 76//35
f 76//35 11//35 13//35
f 76//35 13//35 15//35
f 17//35 19//35 76//35
f 76//35 19//35 21//35
f 76//35 21//35 23//35
f 23//35 25//35 76//35
f 76//35 25//35 27//35
f 76//35 27//35 29//35
f 77//40 75//40 73//40
f 73//40 75//40 72//40
