# CAD Exchanger 3.19.0 (cadexchanger.com)
# Object Count: 1
g Data Center Fence
v 157090.713501 2438.400030 -84651.321411
v 157166.915894 2438.400030 -84727.516174
v 61231.109619 2438.400030 -84651.321411
v 61154.907227 2438.400030 -84727.516174
v 61231.109619 2438.400030 -66515.716553
v 61154.907227 2438.400030 -66439.521790
v 157090.713501 2438.400030 -66515.716553
v 157166.915894 2438.400030 -66439.521790
v 61231.109619 0.000000 -66515.716553
v 61154.907227 0.000000 -66439.521790
v 61231.109619 0.000000 -84651.321411
v 61154.907227 0.000000 -84727.516174
v 157090.713501 0.000000 -84651.321411
v 157166.915894 0.000000 -84727.516174
v 157090.713501 0.000000 -66515.716553
v 157166.915894 0.000000 -66439.521790
vn 0.000000 1.000000 0.000000
vn 0.000000 -1.000000 0.000000
vn 1.000000 0.000000 0.000000
vn 0.000000 0.000000 -1.000000
vn -1.000000 0.000000 0.000000
vn 0.000000 0.000000 1.000000
f 1//1 2//1 3//1
f 3//1 2//1 4//1
f 3//1 4//1 5//1
f 5//1 4//1 6//1
f 5//1 6//1 7//1
f 7//1 6//1 8//1
f 7//1 8//1 1//1
f 1//1 8//1 2//1
f 9//2 10//2 11//2
f 11//2 10//2 12//2
f 11//2 12//2 13//2
f 13//2 12//2 14//2
f 13//2 14//2 15//2
f 15//2 14//2 16//2
f 15//2 16//2 9//2
f 9//2 16//2 10//2
f 2//3 8//3 14//3
f 14//3 8//3 16//3
f 4//4 2//4 12//4
f 12//4 2//4 14//4
f 6//5 4//5 10//5
f 10//5 4//5 12//5
f 8//6 6//6 16//6
f 16//6 6//6 10//6
f 7//5 1//5 15//5
f 15//5 1//5 13//5
f 1//6 3//6 13//6
f 13//6 3//6 11//6
f 3//3 5//3 11//3
f 11//3 5//3 9//3
f 5//4 7//4 9//4
f 9//4 7//4 15//4
