# CAD Exchanger 3.19.0 (cadexchanger.com)
# Object Count: 1
g Emergency Generator
v 109496.688843 152.400002 -109853.782654
v 111935.089111 152.400002 -111072.982788
v 101293.975830 152.400002 -109853.782654
v 98855.575562 152.400002 -111072.982788
v 101293.975830 152.400002 -106196.182251
v 98855.575562 152.400002 -104976.982117
v 109496.688843 152.400002 -106196.182251
v 111935.089111 152.400002 -104976.982117
v 111935.089111 0.000000 -104976.982117
v 98855.575562 0.000000 -104976.982117
v 111935.089111 0.000000 -111072.982788
v 98855.575562 0.000000 -111072.982788
v 101293.975830 2590.800047 -106196.182251
v 101293.975830 2590.800047 -109853.782654
v 109496.688843 2590.800047 -106196.182251
v 109496.688843 2590.800047 -109853.782654
vn 0.000000 1.000000 0.000000
vn 0.000000 0.000000 1.000000
vn 1.000000 0.000000 0.000000
vn 0.000000 0.000000 -1.000000
vn -1.000000 0.000000 0.000000
vn 0.000000 -1.000000 0.000000
f 1//1 2//1 3//1
f 3//1 2//1 4//1
f 3//1 4//1 5//1
f 5//1 4//1 6//1
f 5//1 6//1 7//1
f 7//1 6//1 8//1
f 7//1 8//1 1//1
f 1//1 8//1 2//1
f 8//2 6//2 9//2
f 9//2 6//2 10//2
f 2//3 8//3 11//3
f 11//3 8//3 9//3
f 4//4 2//4 12//4
f 12//4 2//4 11//4
f 6//5 4//5 10//5
f 10//5 4//5 12//5
f 12//6 11//6 10//6
f 10//6 11//6 9//6
f 13//5 14//5 5//5
f 5//5 14//5 3//5
f 15//2 13//2 7//2
f 7//2 13//2 5//2
f 16//3 15//3 1//3
f 1//3 15//3 7//3
f 14//4 16//4 3//4
f 3//4 16//4 1//4
f 15//1 16//1 13//1
f 13//1 16//1 14//1
