# CAD Exchanger 3.19.0 (cadexchanger.com)
# Object Count: 1
g Fluids Processing Bldg
v 128249.572754 2427.048445 -144134.002686
v 128249.572754 0.000000 -144134.002686
v 128249.572754 2427.048445 -132145.202637
v 128249.572754 0.000000 -132145.202637
v 119308.769226 2427.048445 -132145.202637
v 119308.769226 2427.048445 -144134.002686
v 119444.122314 2901.957273 -132145.202637
v 119444.122314 2901.957273 -144134.002686
v 119629.760742 3359.553576 -132145.202637
v 119629.760742 3359.553576 -144134.002686
v 119863.548279 3794.528484 -132145.202637
v 119863.548279 3794.528484 -144134.002686
v 120142.761230 4201.835632 -132145.202637
v 120142.761230 4201.835632 -144134.002686
v 120464.157104 4576.749802 -132145.202637
v 120464.157104 4576.749802 -144134.002686
v 120824.020386 4914.921284 -132145.202637
v 120824.020386 4914.921284 -144134.002686
v 121218.162537 5212.427139 -132145.202637
v 121218.162537 5212.427139 -144134.002686
v 121642.021179 5465.815067 -132145.202637
v 121642.021179 5465.815067 -144134.002686
v 122090.667725 5672.145367 -132145.202637
v 122090.667725 5672.145367 -144134.002686
v 122558.906555 5829.025269 -132145.202637
v 122558.906555 5829.025269 -144134.002686
v 123041.297913 5934.634209 -132145.202637
v 123041.297913 5934.634209 -144134.002686
v 123532.257080 5987.746239 -132145.202637
v 123532.257080 5987.746239 -144134.002686
v 124026.077271 5987.746239 -132145.202637
v 124026.077271 5987.746239 -144134.002686
v 124517.036438 5934.634209 -132145.202637
v 124517.036438 5934.634209 -144134.002686
v 124999.427795 5829.025269 -132145.202637
v 124999.427795 5829.025269 -144134.002686
v 125467.666626 5672.145367 -132145.202637
v 125467.666626 5672.145367 -144134.002686
v 125916.313171 5465.815067 -132145.202637
v 125916.313171 5465.815067 -144134.002686
v 126340.171814 5212.427139 -132145.202637
v 126340.171814 5212.427139 -144134.002686
v 126734.313965 4914.921284 -132145.202637
v 126734.313965 4914.921284 -144134.002686
v 127094.169617 4576.749802 -132145.202637
v 127094.169617 4576.749802 -144134.002686
v 127415.573120 4201.835632 -132145.202637
v 127415.573120 4201.835632 -144134.002686
v 127694.786072 3794.528484 -132145.202637
v 127694.786072 3794.528484 -144134.002686
v 127928.573608 3359.553576 -132145.202637
v 127928.573608 3359.553576 -144134.002686
v 128114.212036 2901.957273 -132145.202637
v 128114.212036 2901.957273 -144134.002686
v 119308.769226 0.000000 -144134.002686
v 119308.769226 0.000000 -132145.202637
v 120832.717896 0.000000 -144134.002686
v 120832.717896 2133.599997 -144134.002686
v 119816.757202 0.000000 -144134.002686
v 119816.757202 2133.599997 -144134.002686
v 120426.368713 3657.599926 -132145.202637
v 127639.907837 0.000000 -132145.202637
v 127639.907837 2133.599997 -132145.202637
v 126623.947144 0.000000 -132145.202637
v 124703.399658 0.000000 -132145.202637
v 126623.947144 2133.599997 -132145.202637
v 124703.399658 3657.599926 -132145.202637
v 120426.368713 0.000000 -132145.202637
v 124703.399658 3657.599926 -132043.594360
v 124703.399658 0.000000 -132043.594360
v 120426.368713 3657.599926 -132043.594360
v 120426.368713 0.000000 -132043.594360
v 127639.907837 2133.599997 -132043.594360
v 127639.907837 0.000000 -132043.594360
v 126623.947144 2133.599997 -132043.594360
v 126623.947144 0.000000 -132043.594360
v 119816.757202 2133.599997 -144235.595703
v 119816.757202 0.000000 -144235.595703
v 120832.717896 0.000000 -144235.595703
v 120832.717896 2133.599997 -144235.595703
vn -1.000000 0.000000 0.000000
vn 0.975069 -0.221901 0.000000
vn 0.945547 -0.325486 0.000000
vn 0.905054 -0.425296 0.000000
vn 0.854062 -0.520171 0.000000
vn 0.793161 -0.609012 0.000000
vn 0.723059 -0.690787 0.000000
vn 0.644567 -0.764548 0.000000
vn 0.558598 -0.829439 0.000000
vn 0.466148 -0.884707 0.000000
vn 0.368290 -0.929711 0.000000
vn 0.266159 -0.963929 0.000000
vn 0.160941 -0.986964 0.000000
vn 0.053855 -0.998549 0.000000
vn -0.053855 -0.998549 0.000000
vn -0.160941 -0.986964 0.000000
vn -0.266159 -0.963929 0.000000
vn -0.368290 -0.929711 0.000000
vn -0.466148 -0.884707 0.000000
vn -0.558598 -0.829439 0.000000
vn -0.644567 -0.764548 0.000000
vn -0.723059 -0.690787 0.000000
vn -0.793161 -0.609012 0.000000
vn -0.854062 -0.520171 0.000000
vn -0.905054 -0.425296 0.000000
vn -0.945547 -0.325486 0.000000
vn -0.975069 -0.221901 0.000000
vn 1.000000 0.000000 0.000000
vn 0.000000 0.000000 1.000000
vn 0.000000 0.000000 -1.000000
vn 0.000000 -1.000000 0.000000
f 1//1 2//1 3//1
f 3//1 2//1 4//1
f 5//2 6//2 7//3
f 7//3 6//2 8//3
f 7//3 8//3 9//4
f 9//4 8//3 10//4
f 9//4 10//4 11//5
f 11//5 10//4 12//5
f 11//5 12//5 13//6
f 13//6 12//5 14//6
f 13//6 14//6 15//7
f 15//7 14//6 16//7
f 15//7 16//7 17//8
f 17//8 16//7 18//8
f 17//8 18//8 19//9
f 19//9 18//8 20//9
f 19//9 20//9 21//10
f 21//10 20//9 22//10
f 21//10 22//10 23//11
f 23//11 22//10 24//11
f 23//11 24//11 25//12
f 25//12 24//11 26//12
f 25//12 26//12 27//13
f 27//13 26//12 28//13
f 27//13 28//13 29//14
f 29//14 28//13 30//14
f 29//14 30//14 31//15
f 31//15 30//14 32//15
f 31//15 32//15 33//16
f 33//16 32//15 34//16
f 33//16 34//16 35//17
f 35//17 34//16 36//17
f 35//17 36//17 37//18
f 37//18 36//17 38//18
f 37//18 38//18 39//19
f 39//19 38//18 40//19
f 39//19 40//19 41//20
f 41//20 40//19 42//20
f 41//20 42//20 43//21
f 43//21 42//20 44//21
f 43//21 44//21 45//22
f 45//22 44//21 46//22
f 45//22 46//22 47//23
f 47//23 46//22 48//23
f 47//23 48//23 49//24
f 49//24 48//23 50//24
f 49//24 50//24 51//25
f 51//25 50//24 52//25
f 51//25 52//25 53//26
f 53//26 52//25 54//26
f 53//26 54//26 3//27
f 3//27 54//26 1//27
f 55//28 6//28 56//28
f 56//28 6//28 5//28
f 2//29 1//29 57//29
f 57//29 1//29 54//29
f 57//29 54//29 52//29
f 52//29 50//29 57//29
f 57//29 50//29 48//29
f 57//29 48//29 46//29
f 18//29 16//29 58//29
f 58//29 16//29 14//29
f 58//29 14//29 12//29
f 55//29 59//29 6//29
f 6//29 59//29 60//29
f 6//29 60//29 8//29
f 8//29 60//29 58//29
f 8//29 58//29 10//29
f 10//29 58//29 12//29
f 58//29 26//29 24//29
f 46//29 44//29 57//29
f 57//29 44//29 42//29
f 57//29 42//29 40//29
f 32//29 30//29 58//29
f 58//29 30//29 28//29
f 58//29 28//29 26//29
f 24//29 22//29 58//29
f 58//29 22//29 20//29
f 58//29 20//29 18//29
f 40//29 38//29 57//29
f 57//29 38//29 36//29
f 57//29 36//29 58//29
f 58//29 36//29 34//29
f 58//29 34//29 32//29
f 11//30 13//30 61//30
f 4//30 62//30 3//30
f 3//30 62//30 63//30
f 64//30 65//30 66//30
f 66//30 65//30 67//30
f 17//30 19//30 67//30
f 29//30 66//30 27//30
f 27//30 66//30 67//30
f 27//30 67//30 25//30
f 47//30 49//30 66//30
f 66//30 49//30 51//30
f 66//30 51//30 63//30
f 63//30 51//30 53//30
f 63//30 53//30 3//30
f 29//30 31//30 66//30
f 66//30 31//30 33//30
f 66//30 33//30 35//30
f 61//30 13//30 67//30
f 67//30 13//30 15//30
f 67//30 15//30 17//30
f 35//30 37//30 66//30
f 66//30 37//30 39//30
f 66//30 39//30 41//30
f 19//30 21//30 67//30
f 67//30 21//30 23//30
f 67//30 23//30 25//30
f 56//30 5//30 68//30
f 68//30 5//30 7//30
f 68//30 7//30 61//30
f 61//30 7//30 9//30
f 61//30 9//30 11//30
f 41//30 43//30 66//30
f 66//30 43//30 45//30
f 66//30 45//30 47//30
f 69//1 67//1 70//1
f 70//1 67//1 65//1
f 71//31 61//31 69//31
f 69//31 61//31 67//31
f 72//28 68//28 71//28
f 71//28 68//28 61//28
f 73//1 63//1 74//1
f 74//1 63//1 62//1
f 75//31 66//31 73//31
f 73//31 66//31 63//31
f 76//28 64//28 75//28
f 75//28 64//28 66//28
f 77//28 60//28 78//28
f 78//28 60//28 59//28
f 79//1 57//1 80//1
f 80//1 57//1 58//1
f 80//31 58//31 77//31
f 77//31 58//31 60//31
g Fluids Processing Bldg-1
v 120426.368713 0.000000 -132145.202637
v 120426.368713 0.000000 -132043.594360
v 119308.769226 0.000000 -132145.202637
v 119207.168579 0.000000 -132043.594360
v 119308.769226 0.000000 -144134.002686
v 119207.168579 0.000000 -144235.595703
v 119816.757202 0.000000 -144134.002686
v 119816.757202 0.000000 -144235.595703
v 120832.717896 0.000000 -144134.002686
v 120832.717896 0.000000 -144235.595703
v 128249.572754 0.000000 -144134.002686
v 128351.165771 0.000000 -144235.595703
v 128249.572754 0.000000 -132145.202637
v 128351.165771 0.000000 -132043.594360
v 127639.907837 0.000000 -132145.202637
v 127639.907837 0.000000 -132043.594360
v 124703.399658 0.000000 -132043.594360
v 124703.399658 0.000000 -132145.202637
v 126623.947144 0.000000 -132043.594360
v 126623.947144 0.000000 -132145.202637
v 128351.165771 2438.400030 -144235.595703
v 128351.165771 2438.400030 -132043.594360
v 128213.714600 2925.039291 -144235.595703
v 128213.714600 2925.039291 -132043.594360
v 128024.612427 3394.034386 -144235.595703
v 128024.612427 3394.034386 -132043.594360
v 127786.087036 3839.924335 -144235.595703
v 127786.087036 3839.924335 -132043.594360
v 127500.907898 4257.517815 -144235.595703
v 127500.907898 4257.517815 -132043.594360
v 127172.386169 4641.951561 -144235.595703
v 127172.386169 4641.951561 -132043.594360
v 126804.359436 4988.749981 -144235.595703
v 126804.359436 4988.749981 -132043.594360
v 126401.107788 5293.874741 -144235.595703
v 126401.107788 5293.874741 -132043.594360
v 125967.330933 5553.773403 -144235.595703
v 125967.330933 5553.773403 -132043.594360
v 125508.071899 5765.419960 -144235.595703
v 125508.071899 5765.419960 -132043.594360
v 125028.678894 5926.349163 -144235.595703
v 125028.678894 5926.349163 -132043.594360
v 124534.744263 6034.687519 -144235.595703
v 124534.744263 6034.687519 -132043.594360
v 124032.005310 6089.174271 -144235.595703
v 124032.005310 6089.174271 -132043.594360
v 123526.329041 6089.174271 -144235.595703
v 123526.329041 6089.174271 -132043.594360
v 123023.590088 6034.687519 -144235.595703
v 123023.590088 6034.687519 -132043.594360
v 122529.647827 5926.349163 -144235.595703
v 122529.647827 5926.349163 -132043.594360
v 122050.262451 5765.419960 -144235.595703
v 122050.262451 5765.419960 -132043.594360
v 121591.003418 5553.773403 -144235.595703
v 121591.003418 5553.773403 -132043.594360
v 121157.218933 5293.874741 -144235.595703
v 121157.218933 5293.874741 -132043.594360
v 120753.974915 4988.749981 -144235.595703
v 120753.974915 4988.749981 -132043.594360
v 120385.948181 4641.951561 -144235.595703
v 120385.948181 4641.951561 -132043.594360
v 120057.426453 4257.517815 -144235.595703
v 120057.426453 4257.517815 -132043.594360
v 119772.247314 3839.924335 -144235.595703
v 119772.247314 3839.924335 -132043.594360
v 119533.721924 3394.034386 -144235.595703
v 119533.721924 3394.034386 -132043.594360
v 119344.627380 2925.039291 -144235.595703
v 119344.627380 2925.039291 -132043.594360
v 119207.168579 2438.400030 -144235.595703
v 119207.168579 2438.400030 -132043.594360
v 119816.757202 2133.599997 -144235.595703
v 120832.717896 2133.599997 -144235.595703
v 124703.399658 3657.599926 -132043.594360
v 126623.947144 2133.599997 -132043.594360
v 120426.368713 3657.599926 -132043.594360
v 127639.907837 2133.599997 -132043.594360
vn 0.000000 -1.000000 0.000000
vn 1.000000 0.000000 0.000000
vn 0.975610 0.219512 0.000000
vn 0.946278 0.323355 0.000000
vn 0.905927 0.423433 0.000000
vn 0.855029 0.518581 0.000000
vn 0.794174 0.607690 0.000000
vn 0.724073 0.689724 0.000000
vn 0.645540 0.763726 0.000000
vn 0.559491 0.828836 0.000000
vn 0.466928 0.884295 0.000000
vn 0.368928 0.929458 0.000000
vn 0.266632 0.963799 0.000000
vn 0.161231 0.986917 0.000000
vn 0.053953 0.998544 0.000000
vn -0.053953 0.998544 0.000000
vn -0.161231 0.986917 0.000000
vn -0.266632 0.963799 0.000000
vn -0.368928 0.929458 0.000000
vn -0.466928 0.884295 0.000000
vn -0.559491 0.828836 0.000000
vn -0.645540 0.763726 0.000000
vn -0.724073 0.689724 0.000000
vn -0.794174 0.607690 0.000000
vn -0.855029 0.518581 0.000000
vn -0.905927 0.423433 0.000000
vn -0.946278 0.323355 0.000000
vn -0.975610 0.219512 0.000000
vn -1.000000 0.000000 0.000000
vn 0.000000 0.000000 -1.000000
vn 0.000000 0.000000 1.000000
f 81//32 82//32 83//32
f 83//32 82//32 84//32
f 83//32 84//32 85//32
f 85//32 84//32 86//32
f 85//32 86//32 87//32
f 87//32 86//32 88//32
f 89//32 90//32 91//32
f 91//32 90//32 92//32
f 91//32 92//32 93//32
f 93//32 92//32 94//32
f 93//32 94//32 95//32
f 95//32 94//32 96//32
f 97//32 98//32 99//32
f 99//32 98//32 100//32
f 92//33 101//33 94//33
f 94//33 101//33 102//33
f 102//34 101//34 103//35
f 102//34 103//35 104//35
f 104//35 103//35 105//36
f 104//35 105//36 106//36
f 106//36 105//36 107//37
f 106//36 107//37 108//37
f 108//37 107//37 109//38
f 108//37 109//38 110//38
f 110//38 109//38 111//39
f 110//38 111//39 112//39
f 112//39 111//39 113//40
f 112//39 113//40 114//40
f 114//40 113//40 115//41
f 114//40 115//41 116//41
f 116//41 115//41 117//42
f 116//41 117//42 118//42
f 118//42 117//42 119//43
f 118//42 119//43 120//43
f 120//43 119//43 121//44
f 120//43 121//44 122//44
f 122//44 121//44 123//45
f 122//44 123//45 124//45
f 124//45 123//45 125//46
f 124//45 125//46 126//46
f 126//46 125//46 127//47
f 126//46 127//47 128//47
f 128//47 127//47 129//48
f 128//47 129//48 130//48
f 130//48 129//48 131//49
f 130//48 131//49 132//49
f 132//49 131//49 133//50
f 132//49 133//50 134//50
f 134//50 133//50 135//51
f 134//50 135//51 136//51
f 136//51 135//51 137//52
f 136//51 137//52 138//52
f 138//52 137//52 139//53
f 138//52 139//53 140//53
f 140//53 139//53 141//54
f 140//53 141//54 142//54
f 142//54 141//54 143//55
f 142//54 143//55 144//55
f 144//55 143//55 145//56
f 144//55 145//56 146//56
f 146//56 145//56 147//57
f 146//56 147//57 148//57
f 148//57 147//57 149//58
f 148//57 149//58 150//58
f 150//58 149//58 151//59
f 150//58 151//59 152//59
f 151//60 86//60 152//60
f 152//60 86//60 84//60
f 88//61 86//61 151//61
f 88//61 151//61 153//61
f 153//61 151//61 149//61
f 153//61 149//61 154//61
f 154//61 149//61 147//61
f 154//61 147//61 145//61
f 119//61 117//61 90//61
f 90//61 117//61 115//61
f 90//61 115//61 113//61
f 90//61 107//61 105//61
f 105//61 103//61 90//61
f 90//61 103//61 101//61
f 90//61 101//61 92//61
f 145//61 143//61 154//61
f 154//61 143//61 141//61
f 154//61 141//61 139//61
f 127//61 125//61 154//61
f 154//61 125//61 123//61
f 154//61 123//61 90//61
f 90//61 123//61 121//61
f 90//61 121//61 119//61
f 113//61 111//61 90//61
f 90//61 111//61 109//61
f 90//61 109//61 107//61
f 139//61 137//61 154//61
f 154//61 137//61 135//61
f 154//61 135//61 133//61
f 133//61 131//61 154//61
f 154//61 131//61 129//61
f 154//61 129//61 127//61
f 114//62 116//62 155//62
f 96//62 94//62 102//62
f 84//62 82//62 152//62
f 152//62 82//62 150//62
f 136//62 138//62 155//62
f 97//62 99//62 155//62
f 155//62 99//62 156//62
f 150//62 82//62 148//62
f 148//62 82//62 157//62
f 148//62 157//62 146//62
f 138//62 140//62 155//62
f 155//62 140//62 142//62
f 155//62 142//62 157//62
f 157//62 142//62 144//62
f 157//62 144//62 146//62
f 96//62 102//62 158//62
f 158//62 102//62 104//62
f 158//62 104//62 156//62
f 155//62 122//62 124//62
f 114//62 155//62 112//62
f 116//62 118//62 155//62
f 155//62 118//62 120//62
f 155//62 120//62 122//62
f 124//62 126//62 155//62
f 155//62 126//62 128//62
f 155//62 128//62 130//62
f 130//62 132//62 155//62
f 155//62 132//62 134//62
f 155//62 134//62 136//62
f 104//62 106//62 156//62
f 156//62 106//62 108//62
f 156//62 108//62 155//62
f 155//62 108//62 110//62
f 155//62 110//62 112//62
g Fluids Processing Bldg-2
v 130789.566040 2438.400030 -144235.595703
v 130789.566040 2438.400030 -132043.594360
v 130789.566040 0.000000 -144235.595703
v 130789.566040 0.000000 -132043.594360
v 128351.165771 2438.400030 -144235.595703
v 128351.165771 0.000000 -144235.595703
v 128351.165771 2438.400030 -132043.594360
v 128351.165771 0.000000 -132043.594360
v 119207.168579 2438.400030 -144235.595703
v 119207.168579 2438.400030 -132043.594360
v 119207.168579 0.000000 -144235.595703
v 119207.168579 0.000000 -132043.594360
v 116768.768311 2438.400030 -144235.595703
v 116768.768311 0.000000 -144235.595703
v 116768.768311 2438.400030 -132043.594360
v 116768.768311 0.000000 -132043.594360
vn 1.000000 0.000000 -0.000000
vn 0.000000 0.000000 -1.000000
vn -1.000000 0.000000 0.000000
vn 0.000000 0.000000 1.000000
vn 0.000000 1.000000 0.000000
vn 0.000000 -1.000000 0.000000
f 159//63 160//63 161//63
f 161//63 160//63 162//63
f 163//64 159//64 164//64
f 164//64 159//64 161//64
f 165//65 163//65 166//65
f 166//65 163//65 164//65
f 160//66 165//66 162//66
f 162//66 165//66 166//66
f 163//67 165//67 159//67
f 159//67 165//67 160//67
f 166//68 164//68 162//68
f 162//68 164//68 161//68
f 167//63 168//63 169//63
f 169//63 168//63 170//63
f 171//64 167//64 172//64
f 172//64 167//64 169//64
f 173//65 171//65 174//65
f 174//65 171//65 172//65
f 168//66 173//66 170//66
f 170//66 173//66 174//66
f 171//67 173//67 167//67
f 167//67 173//67 168//67
f 174//68 172//68 170//68
f 170//68 172//68 169//68
