# CAD Exchanger 3.19.0 (cadexchanger.com)
# Object Count: 1
g Fuel Station
v 108812.072754 914.399981 -100435.020447
v 108812.072754 914.399981 -97387.023926
v 108812.072754 0.000000 -100435.020447
v 108812.072754 0.000000 -97387.023926
v 102272.315979 914.399981 -100435.020447
v 102272.315979 0.000000 -100435.020447
v 102272.315979 914.399981 -97387.023926
v 102272.315979 0.000000 -97387.023926
v 104405.921936 914.399981 -97387.023926
v 104405.921936 0.000000 -97387.023926
v 104405.921936 914.399981 -97691.825867
v 104405.921936 0.000000 -97691.825867
v 102577.117920 914.399981 -97691.825867
v 102577.117920 0.000000 -97691.825867
v 102577.117920 914.399981 -100130.226135
v 102577.117920 0.000000 -100130.226135
v 108507.270813 914.399981 -100130.226135
v 108507.270813 0.000000 -100130.226135
v 108507.270813 914.399981 -97691.825867
v 108507.270813 0.000000 -97691.825867
v 106678.474426 914.399981 -97691.825867
v 106678.474426 0.000000 -97691.825867
v 106678.474426 914.399981 -97387.023926
v 106678.474426 0.000000 -97387.023926
vn 1.000000 0.000000 0.000000
vn 0.000000 0.000000 -1.000000
vn -1.000000 0.000000 0.000000
vn 0.000000 0.000000 1.000000
vn 0.000000 1.000000 0.000000
vn 0.000000 -1.000000 0.000000
f 1//1 2//1 3//1
f 3//1 2//1 4//1
f 5//2 1//2 6//2
f 6//2 1//2 3//2
f 7//3 5//3 8//3
f 8//3 5//3 6//3
f 9//4 7//4 10//4
f 10//4 7//4 8//4
f 11//1 9//1 12//1
f 12//1 9//1 10//1
f 13//2 11//2 14//2
f 14//2 11//2 12//2
f 15//1 13//1 16//1
f 16//1 13//1 14//1
f 17//4 15//4 18//4
f 18//4 15//4 16//4
f 19//3 17//3 20//3
f 20//3 17//3 18//3
f 21//2 19//2 22//2
f 22//2 19//2 20//2
f 23//3 21//3 24//3
f 24//3 21//3 22//3
f 2//4 23//4 4//4
f 4//4 23//4 24//4
f 21//5 23//5 19//5
f 19//5 23//5 2//5
f 19//5 2//5 17//5
f 17//5 2//5 1//5
f 17//5 1//5 15//5
f 15//5 1//5 5//5
f 15//5 5//5 13//5
f 13//5 5//5 7//5
f 13//5 7//5 11//5
f 11//5 7//5 9//5
f 12//6 10//6 14//6
f 14//6 10//6 8//6
f 14//6 8//6 16//6
f 16//6 8//6 6//6
f 16//6 6//6 18//6
f 18//6 6//6 3//6
f 18//6 3//6 20//6
f 20//6 3//6 4//6
f 20//6 4//6 22//6
f 22//6 4//6 24//6
