# CAD Exchanger 3.19.0 (cadexchanger.com)
# Object Count: 1
g MV-LV Xfmr
v 107375.625610 2438.400030 -123707.496643
v 113215.728760 2438.400030 -123707.496643
v 107375.625610 0.000000 -123707.496643
v 113215.728760 0.000000 -123707.496643
v 107375.625610 2438.400030 -120550.193787
v 107375.625610 0.000000 -120550.193787
v 113215.728760 2438.400030 -120550.193787
v 113215.728760 0.000000 -120550.193787
vn 0.000000 0.000000 -1.000000
vn -1.000000 0.000000 0.000000
vn 0.000000 0.000000 1.000000
vn 1.000000 0.000000 0.000000
vn 0.000000 1.000000 0.000000
vn 0.000000 -1.000000 0.000000
f 1//1 2//1 3//1
f 3//1 2//1 4//1
f 5//2 1//2 6//2
f 6//2 1//2 3//2
f 7//3 5//3 8//3
f 8//3 5//3 6//3
f 2//4 7//4 4//4
f 4//4 7//4 8//4
f 5//5 7//5 1//5
f 1//5 7//5 2//5
f 8//6 6//6 4//6
f 4//6 6//6 3//6
