# CAD Exchanger 3.19.0 (cadexchanger.com)
# Object Count: 1
g Switchgear Area Fence
v 165565.261841 -2438.400030 12340.358734
v 165565.261841 -2438.400030 36399.261475
v 165565.261841 -0.000000 12340.358734
v 165565.261841 -0.000000 36399.261475
v 190343.063354 -2438.400030 12340.358734
v 190343.063354 -0.000000 12340.358734
v 190343.063354 -2438.400030 36399.261475
v 190343.063354 -0.000000 36399.261475
v 190266.860962 -2438.400030 12416.558266
v 190266.860962 -2438.400030 36323.146820
v 165641.464233 -2438.400030 36323.146820
v 165641.464233 -2438.400030 12416.558266
v 190266.860962 0.000000 12416.558266
v 165641.464233 0.000000 12416.558266
v 165641.464233 0.000000 36323.146820
v 190266.860962 0.000000 36323.146820
vn -1.000000 0.000000 0.000000
vn 0.000000 0.000000 -1.000000
vn 1.000000 0.000000 0.000000
vn 0.000000 0.000000 1.000000
vn 0.000000 -1.000000 0.000000
vn 0.000000 1.000000 0.000000
f 1//1 2//1 3//1
f 3//1 2//1 4//1
f 5//2 1//2 6//2
f 6//2 1//2 3//2
f 7//3 5//3 8//3
f 8//3 5//3 6//3
f 2//4 7//4 4//4
f 4//4 7//4 8//4
f 9//5 5//5 10//5
f 10//5 5//5 7//5
f 10//5 7//5 11//5
f 11//5 7//5 2//5
f 11//5 2//5 12//5
f 12//5 2//5 1//5
f 12//5 1//5 9//5
f 9//5 1//5 5//5
f 13//6 6//6 14//6
f 14//6 6//6 3//6
f 14//6 3//6 15//6
f 15//6 3//6 4//6
f 15//6 4//6 16//6
f 16//6 4//6 8//6
f 16//6 8//6 13//6
f 13//6 8//6 6//6
f 11//3 12//3 15//3
f 15//3 12//3 14//3
f 12//4 9//4 14//4
f 14//4 9//4 13//4
f 9//1 10//1 13//1
f 13//1 10//1 16//1
f 10//2 11//2 16//2
f 16//2 11//2 15//2
