# CAD Exchanger 3.19.0 (cadexchanger.com)
# Object Count: 1
mtllib Recip Gensets.mtl
g Recip Gensets
v 47087.886810 2895.600080 -160212.356567
v 59279.884338 2895.600080 -160212.356567
v 47087.886810 457.199991 -160212.356567
v 59279.884338 457.199991 -160212.356567
v 47087.886810 2895.600080 -157773.956299
v 47087.886810 457.199991 -157773.956299
v 59279.884338 2895.600080 -157773.956299
v 59279.884338 457.199991 -157773.956299
v 47087.886810 2895.600080 -166727.050781
v 59279.884338 2895.600080 -166727.050781
v 47087.886810 457.199991 -166727.050781
v 59279.884338 457.199991 -166727.050781
v 47087.886810 2895.600080 -164288.650513
v 47087.886810 457.199991 -164288.650513
v 59279.884338 2895.600080 -164288.650513
v 59279.884338 457.199991 -164288.650513
vn -0.000000 0.000000 -1.000000
vn -1.000000 0.000000 0.000000
vn 0.000000 0.000000 1.000000
vn 1.000000 0.000000 0.000000
vn 0.000000 1.000000 0.000000
usemtl Material_1
f 1//1 2//1 3//1
f 3//1 2//1 4//1
f 5//2 1//2 6//2
f 6//2 1//2 3//2
f 7//3 5//3 8//3
f 8//3 5//3 6//3
f 2//4 7//4 4//4
f 4//4 7//4 8//4
f 5//5 7//5 1//5
f 1//5 7//5 2//5
f 9//1 10//1 11//1
f 11//1 10//1 12//1
f 13//2 9//2 14//2
f 14//2 9//2 11//2
f 15//3 13//3 16//3
f 16//3 13//3 14//3
f 10//4 15//4 12//4
f 12//4 15//4 16//4
f 13//5 15//5 9//5
f 9//5 15//5 10//5
g Recip Gensets-1
v 47087.886810 457.199991 -157773.956299
v 42199.134827 457.199991 -154866.531372
v 59279.884338 457.199991 -157773.956299
v 60487.136841 457.199991 -154866.531372
v 59279.884338 457.199991 -160212.356567
v 60487.136841 457.199991 -169192.123413
v 59279.884338 457.199991 -164288.650513
v 47087.886810 457.199991 -160212.356567
v 47087.886810 457.199991 -164288.650513
v 42199.134827 457.199991 -169192.123413
v 47087.886810 457.199991 -166727.050781
v 59279.884338 457.199991 -166727.050781
v 42199.134827 0.000000 -169192.123413
v 60487.136841 0.000000 -169192.123413
v 42199.134827 0.000000 -154866.531372
v 60487.136841 0.000000 -154866.531372
vn 0.000000 1.000000 0.000000
vn 0.000000 0.000000 -1.000000
vn -1.000000 0.000000 0.000000
vn 0.000000 0.000000 1.000000
vn 1.000000 0.000000 0.000000
vn 0.000000 -1.000000 0.000000
usemtl Material_2
f 17//6 18//6 19//6
f 19//6 18//6 20//6
f 19//6 20//6 21//6
f 20//6 22//6 21//6
f 21//6 22//6 23//6
f 21//6 23//6 24//6
f 24//6 23//6 25//6
f 17//6 24//6 18//6
f 18//6 24//6 25//6
f 18//6 25//6 26//6
f 26//6 25//6 27//6
f 26//6 27//6 22//6
f 22//6 27//6 28//6
f 22//6 28//6 23//6
f 26//7 22//7 29//7
f 29//7 22//7 30//7
f 18//8 26//8 31//8
f 31//8 26//8 29//8
f 20//9 18//9 32//9
f 32//9 18//9 31//9
f 22//10 20//10 30//10
f 30//10 20//10 32//10
f 32//11 31//11 30//11
f 30//11 31//11 29//11
