# CAD Exchanger 3.19.0 (cadexchanger.com)
# Object Count: 1
mtllib Steel Rolloff.mtl
g Steel Rolloff
v 57264.682770 2438.400030 -188252.517700
v 57239.280701 2438.400030 -188277.908325
v 57264.682770 2438.400030 -185864.913940
v 57239.280701 2438.400030 -185839.508057
v 63309.883118 2438.400030 -185864.913940
v 63335.281372 2438.400030 -185839.508057
v 63309.883118 2438.400030 -188252.517700
v 63335.281372 2438.400030 -188277.908325
v 57239.280701 0.000000 -188277.908325
v 63335.281372 0.000000 -188277.908325
v 57239.280701 0.000000 -185839.508057
v 63335.281372 0.000000 -185839.508057
v 63309.883118 25.400000 -188252.517700
v 57264.682770 25.400000 -188252.517700
v 57264.682770 25.400000 -185864.913940
v 63309.883118 25.400000 -185864.913940
vn 0.000000 1.000000 0.000000
vn 0.000000 0.000000 -1.000000
vn -1.000000 0.000000 0.000000
vn 0.000000 0.000000 1.000000
vn 1.000000 0.000000 0.000000
vn 0.000000 -1.000000 0.000000
usemtl Material_1
f 1//1 2//1 3//1
f 3//1 2//1 4//1
f 3//1 4//1 5//1
f 5//1 4//1 6//1
f 5//1 6//1 7//1
f 7//1 6//1 8//1
f 7//1 8//1 1//1
f 1//1 8//1 2//1
f 2//2 8//2 9//2
f 9//2 8//2 10//2
f 4//3 2//3 11//3
f 11//3 2//3 9//3
f 6//4 4//4 12//4
f 12//4 4//4 11//4
f 8//5 6//5 10//5
f 10//5 6//5 12//5
f 12//6 11//6 10//6
f 10//6 11//6 9//6
f 7//4 1//4 13//4
f 13//4 1//4 14//4
f 1//5 3//5 14//5
f 14//5 3//5 15//5
f 3//2 5//2 15//2
f 15//2 5//2 16//2
f 5//3 7//3 16//3
f 16//3 7//3 13//3
f 15//1 16//1 14//1
f 14//1 16//1 13//1
