# CAD Exchanger 3.19.0 (cadexchanger.com)
# Object Count: 1
mtllib Trailer Unloading Dock.mtl
g Trailer Unloading Dock
v 48239.040375 2082.799911 -265817.443848
v 48239.040375 2133.599997 -265817.443848
v 47350.036621 897.466660 -264277.648926
v 47324.638367 914.399981 -264233.642578
v 47350.036621 101.599999 -264277.648926
v 47324.638367 0.000000 -264233.642578
v 48239.040375 1286.933303 -265817.443848
v 48239.040375 1219.200015 -265817.443848
v 48670.841217 1286.933303 -266565.338135
v 48696.239471 1219.200015 -266609.313965
v 48670.841217 2082.799911 -266565.338135
v 48696.239471 2133.599997 -266609.313965
v 48173.049927 2082.799911 -265855.529785
v 48173.049927 2133.599997 -265855.529785
v 48604.850769 2082.799911 -266603.424072
v 48630.249023 2133.599997 -266647.430420
v 48604.850769 1286.933303 -266603.424072
v 48630.249023 1219.200015 -266647.430420
v 48173.049927 1286.933303 -265855.529785
v 48173.049927 1219.200015 -265855.529785
v 47284.046173 101.599999 -264315.734863
v 47258.644104 0.000000 -264271.759033
v 47284.046173 897.466660 -264315.734863
v 47258.644104 914.399981 -264271.759033
v 48619.865417 1193.799973 -266477.447510
v 48696.063995 1193.799973 -266609.436035
v 48696.151733 1193.799973 -266609.375000
v 45408.298492 1193.799973 -268331.665039
v 46099.678040 1193.799973 -265820.770264
v 45276.317596 1193.799973 -268407.867432
v 45967.697144 1193.799973 -265896.972656
v 44361.915588 1193.799973 -266824.066162
v 44493.896484 1193.799973 -266747.863770
v 44417.694092 1193.799973 -266615.875244
v 45891.494751 1193.799973 -265764.984131
v 46749.557495 1193.799973 -265269.592285
v 46023.479462 1193.799973 -265688.781738
v 47206.756592 1193.799973 -266061.462402
v 48238.952637 1193.799973 -265817.474365
v 48173.049927 1193.799973 -265855.529785
v 48487.880707 1193.799973 -266553.649902
v 47359.157562 1193.799973 -266325.439453
v 48564.083099 1193.799973 -266685.638428
v 47014.080048 1193.799973 -267404.541016
v 47090.282440 1193.799973 -267536.529541
v 46882.099152 1193.799973 -267480.743408
v 46958.297729 1193.799973 -267612.731934
v 45484.497070 1193.799973 -268463.623047
v 44351.703644 1219.200015 -266653.991699
v 46749.557495 1219.200015 -265269.592285
v 45418.506622 1219.200015 -268501.739502
v 47206.756592 1219.200015 -266061.462402
v 48238.952637 1219.200015 -265817.474365
v 48696.151733 1219.200015 -266609.375000
v 48020.648956 1219.200015 -265591.583252
v 45327.117920 1286.933303 -268495.849609
v 44311.115265 1286.933303 -266736.083984
v 44361.915588 0.000000 -266824.066162
v 45276.317596 0.000000 -268407.867432
v 45352.516174 0.000000 -268539.825439
v 45352.516174 2133.599997 -268539.825439
v 45327.117920 2082.799911 -268495.849609
v 44285.713196 2133.599997 -266692.077637
v 44311.115265 2082.799911 -266736.083984
v 44285.713196 0.000000 -266692.077637
v 45418.506622 2133.599997 -268501.739502
v 45484.497070 0.000000 -268463.623047
v 47090.282440 0.000000 -267536.529541
v 46958.297729 0.000000 -267612.731934
v 48564.083099 0.000000 -266685.638428
v 48696.063995 0.000000 -266609.436035
v 44351.703644 2133.599997 -266653.991699
v 44417.694092 0.000000 -266615.875244
v 45891.494751 0.000000 -265764.984131
v 46023.479462 0.000000 -265688.781738
v 47359.157562 1168.400049 -266325.439453
v 48173.049927 1168.400049 -265855.529785
v 47232.158661 1168.400049 -266105.468750
v 47206.756592 1016.000032 -266061.462402
v 47232.158661 965.200007 -266105.468750
v 47054.355621 1016.000032 -265797.515869
v 47079.757690 965.200007 -265841.491699
v 47054.355621 812.799990 -265797.515869
v 47079.757690 762.000024 -265841.491699
v 46901.958466 812.799990 -265533.538818
v 46927.356720 762.000024 -265577.545166
v 46901.958466 609.600008 -265533.538818
v 46927.356720 558.799982 -265577.545166
v 46749.557495 609.600008 -265269.592285
v 46774.955750 558.799982 -265313.568115
v 46749.557495 406.399995 -265269.592285
v 46774.955750 355.599999 -265313.568115
v 46597.156525 406.399995 -265005.615234
v 46622.554779 355.599999 -265049.621582
v 46597.156525 203.199998 -265005.615234
v 46622.554779 152.400002 -265049.621582
v 46444.755554 203.199998 -264741.638184
v 46495.555878 152.400002 -264829.650879
v 46444.755554 0.000000 -264741.638184
v 46495.555878 -0.000000 -264829.650879
v 48020.648956 1016.000032 -265591.583252
v 47868.247986 1016.000032 -265327.606201
v 47868.247986 812.799990 -265327.606201
v 47715.847015 812.799990 -265063.629150
v 47715.847015 609.600008 -265063.629150
v 47563.446045 609.600008 -264799.682617
v 47563.446045 406.399995 -264799.682617
v 47411.045074 406.399995 -264535.705566
v 47411.045074 203.199998 -264535.705566
v 47258.644104 203.199998 -264271.759033
v 47309.444427 0.000000 -264359.741211
v 47309.444427 152.400002 -264359.741211
v 47436.447144 152.400002 -264579.711914
v 47436.447144 355.599999 -264579.711914
v 47588.848114 355.599999 -264843.658447
v 47588.848114 558.799982 -264843.658447
v 47741.245270 558.799982 -265107.635498
v 47741.245270 762.000024 -265107.635498
v 47893.646240 762.000024 -265371.612549
v 47893.646240 965.200007 -265371.612549
v 48046.047211 965.200007 -265635.559082
v 48046.047211 1168.400049 -265635.559082
v 45393.108368 2082.799911 -268457.733154
v 44377.105713 2082.799911 -266697.967529
v 44377.105713 1286.933303 -266697.967529
v 45393.108368 1286.933303 -268457.733154
v 45408.298492 0.000000 -268331.665039
v 46882.099152 -0.000000 -267480.743408
v 47014.080048 0.000000 -267404.541016
v 48487.880707 -0.000000 -266553.649902
v 48619.865417 0.000000 -266477.447510
v 46099.678040 -0.000000 -265820.770264
v 45967.697144 -0.000000 -265896.972656
v 44493.896484 -0.000000 -266747.863770
vn 0.866025 0.000000 0.500001
vn -0.866025 0.000000 -0.500001
vn 0.277351 -0.832050 -0.480384
vn 0.000000 -1.000000 -0.000000
vn 0.500001 0.000000 -0.866025
vn 0.000000 1.000000 0.000000
vn -0.277351 0.832050 0.480384
vn -0.500001 0.000000 0.866025
usemtl Material_1
f 1//1 2//1 3//1
f 3//1 2//1 4//1
f 3//1 4//1 5//1
f 5//1 4//1 6//1
f 5//1 6//1 7//1
f 7//1 6//1 8//1
f 7//1 8//1 9//1
f 9//1 8//1 10//1
f 9//1 10//1 11//1
f 11//1 10//1 12//1
f 11//1 12//1 1//1
f 1//1 12//1 2//1
f 13//2 14//2 15//2
f 15//2 14//2 16//2
f 15//2 16//2 17//2
f 17//2 16//2 18//2
f 17//2 18//2 19//2
f 19//2 18//2 20//2
f 19//2 20//2 21//2
f 21//2 20//2 22//2
f 21//2 22//2 23//2
f 23//2 22//2 24//2
f 23//2 24//2 13//2
f 13//2 24//2 14//2
f 8//3 6//3 20//3
f 20//3 6//3 22//3
f 10//4 8//4 18//4
f 18//4 8//4 20//4
f 12//5 10//5 16//5
f 16//5 10//5 18//5
f 2//6 12//6 14//6
f 14//6 12//6 16//6
f 4//7 2//7 24//7
f 24//7 2//7 14//7
f 6//8 4//8 22//8
f 22//8 4//8 24//8
f 9//8 11//8 17//8
f 17//8 11//8 15//8
f 11//4 1//4 15//4
f 15//4 1//4 13//4
f 1//3 3//3 13//3
f 13//3 3//3 23//3
f 3//5 5//5 23//5
f 23//5 5//5 21//5
f 5//7 7//7 21//7
f 21//7 7//7 19//7
f 7//6 9//6 19//6
f 19//6 9//6 17//6
f 25//4 26//4 27//4
f 28//4 29//4 30//4
f 30//4 29//4 31//4
f 32//4 30//4 33//4
f 33//4 30//4 31//4
f 33//4 31//4 34//4
f 34//4 31//4 35//4
f 36//4 37//4 38//4
f 38//4 37//4 29//4
f 27//4 39//4 25//4
f 25//4 39//4 40//4
f 25//4 40//4 41//4
f 41//4 40//4 42//4
f 41//4 42//4 43//4
f 43//4 42//4 44//4
f 43//4 44//4 45//4
f 42//4 38//4 44//4
f 44//4 38//4 29//4
f 44//4 29//4 46//4
f 46//4 29//4 28//4
f 46//4 28//4 47//4
f 47//4 28//4 48//4
f 49//6 50//6 51//6
f 51//6 50//6 52//6
f 53//6 54//6 20//6
f 20//6 54//6 51//6
f 20//6 51//6 55//6
f 55//6 51//6 52//6
f 40//8 39//8 20//8
f 20//8 39//8 53//8
f 52//1 50//1 38//1
f 38//1 50//1 36//1
f 56//2 30//2 57//2
f 57//2 30//2 32//2
f 57//2 32//2 58//2
f 59//2 30//2 60//2
f 60//2 30//2 56//2
f 60//2 56//2 61//2
f 61//2 56//2 62//2
f 61//2 62//2 63//2
f 62//2 64//2 63//2
f 63//2 64//2 57//2
f 63//2 57//2 65//2
f 65//2 57//2 58//2
f 51//5 54//5 26//5
f 26//5 54//5 27//5
f 47//5 48//5 51//5
f 61//5 66//5 51//5
f 48//5 67//5 51//5
f 51//5 67//5 60//5
f 51//5 60//5 61//5
f 45//5 68//5 69//5
f 69//5 47//5 45//5
f 45//5 47//5 51//5
f 45//5 51//5 43//5
f 43//5 51//5 26//5
f 43//5 26//5 70//5
f 70//5 26//5 71//5
f 39//1 27//1 53//1
f 53//1 27//1 54//1
f 72//8 63//8 49//8
f 49//8 63//8 65//8
f 49//8 65//8 73//8
f 74//8 75//8 35//8
f 35//8 75//8 37//8
f 73//8 34//8 49//8
f 49//8 34//8 35//8
f 49//8 35//8 50//8
f 50//8 35//8 37//8
f 50//8 37//8 36//8
f 76//5 42//5 77//5
f 77//5 42//5 40//5
f 42//2 76//2 38//2
f 38//2 76//2 78//2
f 38//2 78//2 79//2
f 79//2 78//2 80//2
f 79//2 80//2 81//2
f 81//2 80//2 82//2
f 81//2 82//2 83//2
f 83//2 82//2 84//2
f 83//2 84//2 85//2
f 85//2 84//2 86//2
f 85//2 86//2 87//2
f 87//2 86//2 88//2
f 87//2 88//2 89//2
f 89//2 88//2 90//2
f 89//2 90//2 91//2
f 91//2 90//2 92//2
f 91//2 92//2 93//2
f 93//2 92//2 94//2
f 93//2 94//2 95//2
f 95//2 94//2 96//2
f 95//2 96//2 97//2
f 97//2 96//2 98//2
f 97//2 98//2 99//2
f 99//2 98//2 100//2
f 79//8 101//8 38//8
f 38//8 101//8 55//8
f 38//8 55//8 52//8
f 102//6 101//6 81//6
f 81//6 101//6 79//6
f 103//8 102//8 83//8
f 83//8 102//8 81//8
f 104//6 103//6 85//6
f 85//6 103//6 83//6
f 105//8 104//8 87//8
f 87//8 104//8 85//8
f 106//6 105//6 89//6
f 89//6 105//6 87//6
f 107//8 106//8 91//8
f 91//8 106//8 89//8
f 108//6 107//6 93//6
f 93//6 107//6 91//6
f 109//8 108//8 95//8
f 95//8 108//8 93//8
f 110//6 109//6 97//6
f 97//6 109//6 95//6
f 22//8 110//8 99//8
f 99//8 110//8 97//8
f 111//4 22//4 100//4
f 100//4 22//4 99//4
f 40//1 20//1 55//1
f 40//1 55//1 77//1
f 22//1 111//1 110//1
f 110//1 111//1 112//1
f 110//1 112//1 109//1
f 109//1 112//1 113//1
f 109//1 113//1 108//1
f 108//1 113//1 114//1
f 108//1 114//1 107//1
f 107//1 114//1 115//1
f 107//1 115//1 106//1
f 106//1 115//1 116//1
f 106//1 116//1 105//1
f 105//1 116//1 117//1
f 105//1 117//1 104//1
f 104//1 117//1 118//1
f 104//1 118//1 103//1
f 103//1 118//1 119//1
f 103//1 119//1 102//1
f 102//1 119//1 120//1
f 102//1 120//1 101//1
f 101//1 120//1 121//1
f 101//1 121//1 55//1
f 55//1 121//1 122//1
f 55//1 122//1 77//1
f 77//4 122//4 76//4
f 76//4 122//4 78//4
f 112//5 111//5 98//5
f 98//5 111//5 100//5
f 113//4 112//4 96//4
f 96//4 112//4 98//4
f 114//5 113//5 94//5
f 94//5 113//5 96//5
f 115//4 114//4 92//4
f 92//4 114//4 94//4
f 116//5 115//5 90//5
f 90//5 115//5 92//5
f 117//4 116//4 88//4
f 88//4 116//4 90//4
f 118//5 117//5 86//5
f 86//5 117//5 88//5
f 119//4 118//4 84//4
f 84//4 118//4 86//4
f 120//5 119//5 82//5
f 82//5 119//5 84//5
f 121//4 120//4 80//4
f 80//4 120//4 82//4
f 122//5 121//5 78//5
f 78//5 121//5 80//5
f 72//6 66//6 63//6
f 63//6 66//6 61//6
f 123//1 66//1 124//1
f 124//1 66//1 72//1
f 124//1 72//1 125//1
f 125//1 72//1 49//1
f 125//1 49//1 126//1
f 126//1 49//1 51//1
f 126//1 51//1 123//1
f 123//1 51//1 66//1
f 125//6 126//6 57//6
f 57//6 126//6 56//6
f 126//8 123//8 56//8
f 56//8 123//8 62//8
f 123//4 124//4 62//4
f 62//4 124//4 64//4
f 124//5 125//5 64//5
f 64//5 125//5 57//5
f 127//4 59//4 67//4
f 67//4 59//4 60//4
f 59//8 127//8 30//8
f 30//8 127//8 28//8
f 127//1 67//1 28//1
f 28//1 67//1 48//1
f 69//2 128//2 47//2
f 47//2 128//2 46//2
f 128//8 129//8 46//8
f 46//8 129//8 44//8
f 129//1 68//1 44//1
f 44//1 68//1 45//1
f 129//4 128//4 68//4
f 68//4 128//4 69//4
f 70//2 130//2 43//2
f 43//2 130//2 41//2
f 130//8 131//8 41//8
f 41//8 131//8 25//8
f 131//1 71//1 25//1
f 25//1 71//1 26//1
f 131//4 130//4 71//4
f 71//4 130//4 70//4
f 132//5 133//5 29//5
f 29//5 133//5 31//5
f 133//2 74//2 31//2
f 31//2 74//2 35//2
f 75//1 132//1 37//1
f 37//1 132//1 29//1
f 75//4 74//4 132//4
f 132//4 74//4 133//4
f 134//5 58//5 33//5
f 33//5 58//5 32//5
f 73//4 65//4 134//4
f 134//4 65//4 58//4
f 73//1 134//1 34//1
f 34//1 134//1 33//1
