# CAD Exchanger 3.19.0 (cadexchanger.com)
# Object Count: 1
mtllib Wet Ash Bunker.mtl
g Wet Ash Bunker
v 59703.678131 25.400000 -149551.483154
v 59703.678131 1828.799963 -149551.483154
v 63767.669678 25.400000 -149551.483154
v 63767.669678 1828.799963 -149551.483154
v 63970.878601 0.000000 -149348.281860
v 63970.878601 1828.799963 -149348.281860
v 59703.678131 0.000000 -149348.281860
v 59703.678131 1828.799963 -149348.281860
v 63970.878601 0.000000 -153208.877563
v 63970.878601 1828.799963 -153208.877563
v 59703.678131 0.000000 -153208.877563
v 59703.678131 1828.799963 -153208.877563
v 59703.678131 25.400000 -153005.661011
v 59703.678131 1828.799963 -153005.661011
v 63767.669678 25.400000 -153005.661011
v 63767.669678 1828.799963 -153005.661011
vn 0.000000 0.000000 -1.000000
vn 0.000000 0.000000 1.000000
vn 1.000000 0.000000 0.000000
vn -1.000000 0.000000 0.000000
vn 0.000000 1.000000 0.000000
vn 0.000000 -1.000000 0.000000
usemtl Material_1
f 1//1 2//1 3//1
f 3//1 2//1 4//1
f 5//2 6//2 7//2
f 7//2 6//2 8//2
f 9//3 10//3 5//3
f 5//3 10//3 6//3
f 11//1 12//1 9//1
f 9//1 12//1 10//1
f 13//4 14//4 12//4
f 7//4 8//4 2//4
f 2//4 1//4 7//4
f 7//4 1//4 13//4
f 7//4 13//4 11//4
f 11//4 13//4 12//4
f 15//2 16//2 13//2
f 13//2 16//2 14//2
f 3//4 4//4 15//4
f 15//4 4//4 16//4
f 2//5 8//5 4//5
f 4//5 8//5 6//5
f 4//5 6//5 16//5
f 16//5 6//5 10//5
f 16//5 10//5 14//5
f 14//5 10//5 12//5
f 11//6 9//6 7//6
f 7//6 9//6 5//6
f 15//5 13//5 3//5
f 3//5 13//5 1//5
